<?xml version="1.0" encoding="UTF-8"?>
<svg id="Layer_1" data-name="Layer 1" xmlns="http://www.w3.org/2000/svg" version="1.1" viewBox="0 0 1431.3 694.7">
  <defs>
    <style>
      .cls-1 {
        fill-rule: evenodd;
      }

      .cls-1, .cls-2 {
        fill: #221f20;
      }

      .cls-1, .cls-2, .cls-3, .cls-4, .cls-5, .cls-6 {
        stroke-width: 0px;
      }

      .cls-3 {
        fill: #d1d1d1;
      }

      .cls-4 {
        fill: #eda240;
      }

      .cls-5 {
        fill: #fff;
      }

      .cls-6 {
        fill: #231f20;
      }
    </style>
  </defs>
  <g id="Layer_1-2" data-name="Layer 1-2">
    <path class="cls-5" d="M414.7,105.7v3.2h-6.7v21.3h-4v-21.3h-6.7v-3.2h17.4,0ZM442.2,130.2h-4v-19.3h0l-6.8,19.3h-3.2l-6.4-19.3h-.2v19.3h-4v-24.5h6.3l6.1,18.2h0l5.9-18.2h6.2v24.5h0Z"/>
    <path id="background" class="cls-5" d="M928.1,521.1h-432.4V88.8h432.4v432.3Z"/>
    <path id="background_letters" data-name="background letters" class="cls-3" d="M535.5,88.8l-16.7,12.6,28.1,37.3,21.9-16.5-6-8-12.1,9.1-5.5-7.3,9.5-7.1-6-8-9.5,7.2-4.8-6.3,11.5-8.7-3.2-4.2h-7.2ZM550.1,88.8c1.2,3.6,3.6,7.8,7.3,12.7,11.1,14.7,16.4,17.9,26.2,10.5,2.7-1.9,4.6-4.8,5.2-8l2.9.9,5-3.8-9.2-12.3h-17.6l-1,.8,5.2,7,2.5-1.8,2.8,3.7c1.7,2.2,1.3,3.9-.2,5.1s-3.3,1.1-5-1.2l-10.1-13.6h-14ZM596.6,88.8l6,8,9.8-7.4-.4-.5h-15.4,0ZM642.8,88.8c-2.2,5.5.3,12.1,7.5,21.8,11.1,14.7,16.4,17.9,26.2,10.5,2.7-1.9,4.6-4.8,5.2-8l2.9.9,5-3.8-15.6-20.8-12.3,9.3,5.2,7,2.5-1.9,2.8,3.7c1.7,2.2,1.3,3.9-.2,5.1s-3.2,1-4.9-1.2l-12.8-17c-1.7-2.2-1.3-3.9.2-5,.3-.2.6-.4.9-.5h-12.6ZM657.3,88.8c.8.3,1.6.9,2.1,1.7l1.7,2.2,5-3.8h-8.8ZM682.6,88.8l12.8,17,9.8-7.4-7.2-9.6h-15.4,0ZM744.4,88.8c-1,.6-2,1.2-3,1.9-9.5,7.2-9,14.9,1.6,29,11.1,14.7,16.4,17.9,26.2,10.5,2.7-1.9,4.6-4.8,5.2-8l2.9.9,5-3.8-15.4-20.8-12.3,9.3,5.2,7,2.4-1.9,2.8,3.6c1.7,2.2,1.3,3.9-.2,5.1-1.5,1.2-3.2,1-4.9-1.2l-12.9-17.1c-1.7-2.2-1.3-3.9.2-5s3.2-1.1,4.9,1.2l1.6,2.2,9.8-7.4c-1.4-2.1-3.1-3.9-5.1-5.5h-14ZM768.5,88.8l19.7,26.1,9.9-7.4-14.1-18.7h-15.5ZM812.3,88.8l3.8,5.1,6.8-5.1h-10.6ZM854.5,88.8l26.6,35.2,9.8-7.4-21-27.8h-15.4,0ZM898.3,88.8l10.7,14.1,9.5-7.2-5.3-7h-14.9ZM633,94.4l-21.3,16.1,28.1,37.3,21.9-16.5-6-8-12.1,9.1-5.5-7.3,9.5-7.2-6-8-9.5,7.1-4.8-6.3,11.5-8.7-5.8-7.6h0ZM844.9,95.7c-3.8.2-7.5,1.6-10.5,4-9.5,7.1-9,14.9,1.6,29,11.1,14.7,16.4,17.9,26.2,10.5,2.7-1.9,4.6-4.8,5.3-8l2.9.9,5-3.8-15.7-20.7-12.3,9.3,5.2,7,2.4-1.9,2.8,3.7c1.7,2.2,1.3,3.9-.2,5.1s-3.2,1.1-4.9-1.2l-12.9-17c-1.7-2.2-1.3-3.9.2-5s3.2-1.1,4.9,1.1l1.6,2.2,9.8-7.4c-2.3-3-3.8-4.8-5.5-5.8-1.6-1.3-3.7-2-5.9-2h0ZM725.8,103.5l-21.3,16,28.1,37.3,21.9-16.5-6-8-12.1,9.1-5.5-7.3,9.5-7.2-6-8-9.5,7.2-4.8-6.3,11.5-8.6-5.8-7.7h0ZM928.1,108.3c-.3.2-.6.4-.9.6-9.2,7-8.9,14.6.9,28v-28.6ZM514.6,108.3c-3.4-.2-6.9,1.4-10.9,4.4l-8,6.1v6.3l25.1,33.3,9.5-7.1-11-14.5,1.7-1.3c9-6.8,9.9-11.8,3.4-20.4-3.2-4.5-6.4-6.6-9.8-6.8ZM818.6,112.5l-21.3,16.1,28.1,37.3,21.9-16.5-6-8-12.1,9.1-5.5-7.3,9.5-7.2-6-8-9.5,7.1-4.8-6.3,11.5-8.7-5.8-7.6h0ZM607.5,117.4c-3.4-.2-6.9,1.4-10.9,4.4l-11.1,8.3,28.1,37.3,9.5-7.2-11-14.5,1.7-1.3c9-6.8,9.9-11.8,3.5-20.4-3.3-4.3-6.5-6.4-9.8-6.6ZM511.6,118.7c1.2,0,2.2,1,3.5,2.8,3.1,4.2,2.2,5.8-1,8.2l-6.8-9c1.8-1.4,3.1-2.1,4.3-2h0ZM911.5,121.6l-21.3,16.1,28.1,37.3,9.8-7.4v-12.5l-6,4.5-5.5-7.3,9.5-7.2-6-8-9.5,7.1-4.8-6.3,11.5-8.7-5.8-7.6ZM700.3,126.5c-3.4-.2-6.9,1.4-10.9,4.4l-11.1,8.3,28.2,37.3,9.5-7.2-11-14.5,1.7-1.3c9-6.8,9.9-11.8,3.4-20.4-3.3-4.3-6.4-6.4-9.8-6.6h0ZM604.4,127.8c1.2,0,2.2,1,3.5,2.8,3.1,4.2,2.2,5.8-1,8.2l-6.8-9c1.8-1.4,3.1-2.1,4.3-2ZM793.2,135.6c-3.4-.2-6.9,1.4-10.9,4.4l-11.1,8.3,28.1,37.3,9.5-7.2-11-14.5,1.7-1.3c9-6.8,10-11.8,3.5-20.4-3.3-4.4-6.5-6.4-9.8-6.6ZM697.2,136.9c1.2,0,2.2,1,3.5,2.8,3.1,4.2,2.2,5.8-1,8.2l-6.8-9c1.9-1.5,3.2-2.1,4.3-2ZM567.4,143.8l-9.8,7.4,28.1,37.3,9.8-7.4-28.1-37.3ZM886,144.7c-3.4-.2-6.9,1.4-10.9,4.4l-11,8.3,28.1,37.3,9.5-7.2-11-14.5,1.7-1.3c9-6.8,10-11.8,3.5-20.4-3.4-4.3-6.6-6.4-9.9-6.6h0ZM790.1,146c1.2,0,2.2,1,3.5,2.8,3.1,4.1,2.2,5.8-1,8.2l-6.8-9c1.8-1.5,3.1-2.1,4.3-2ZM660.3,152.8l-9.8,7.4,28,37.4,9.8-7.4-28-37.4ZM882.9,155.1c1.2,0,2.2,1,3.5,2.8,3.2,4.2,2.2,5.8-1,8.2l-6.8-9c1.8-1.5,3.1-2.2,4.3-2ZM549.5,160.2c-3.6,0-7.2,1.6-10.5,4-9.5,7.2-9,14.9,1.6,29,11.1,14.7,16.4,17.9,26.2,10.5,2.7-1.9,4.6-4.8,5.2-8l2.9.9,5.1-3.8-15.6-20.7-12.3,9.3,5.2,7,2.5-1.8,2.8,3.7c1.7,2.2,1.3,3.9-.2,5.1s-3.2,1-4.9-1.2l-13-17.2c-1.7-2.2-1.3-3.9.2-5s3.2-1.1,4.9,1.2l1.7,2.2,9.8-7.4c-2.3-3-3.9-4.8-5.5-5.8-1.7-1.3-3.9-2-6.1-2h0ZM753.1,161.9l-9.8,7.4,28.1,37.3,9.8-7.4-28.1-37.3ZM495.7,162.6v14.6l7-5.3-7-9.3h0ZM642.3,169.3c-3.8.2-7.5,1.6-10.5,4-9.5,7.2-9,14.9,1.6,29,11.1,14.7,16.4,17.9,26.2,10.5,2.7-1.9,4.6-4.8,5.2-8l2.9.9,5-3.8-15.6-20.7-12.3,9.3,5.2,7,2.5-1.8,2.8,3.7c1.7,2.2,1.3,3.9-.2,5.1s-3.2,1.1-4.9-1.2l-12.8-17c-1.7-2.2-1.3-3.9.2-5.1s3.2-1.1,4.9,1.2l1.6,2.2,9.8-7.5c-2.3-3-3.9-4.8-5.5-5.8-1.7-1.4-3.9-2-6.1-2h0ZM845.9,171l-9.9,7.4,28.1,37.3,9.8-7.4-28-37.3h0ZM523.3,177l-21.3,16.1,28.1,37.3,21.9-16.5-6-8-12.1,9.1-5.5-7.3,9.5-7.2-6-8-9.5,7.1-4.8-6.3,11.4-8.7-5.7-7.6h0ZM735.2,178.4c-3.6,0-7.2,1.5-10.5,4-9.5,7.2-9,14.9,1.6,29,11.1,14.7,16.4,17.9,26.2,10.5,2.7-1.9,4.6-4.8,5.2-8l2.9.9,5-3.8-15.6-20.7-12.3,9.3,5.3,7,2.5-1.9,2.8,3.7c1.7,2.2,1.3,3.9-.2,5.1s-3.2,1.1-4.9-1.2l-12.8-17c-1.7-2.2-1.3-3.9.2-5s3.2-1.1,4.9,1.2l1.6,2.2,9.8-7.4c-2.3-3-3.8-4.7-5.5-5.8-1.9-1.4-4-2.1-6.2-2.1h0ZM616.1,186.1l-21.3,16.1,28.1,37.3,21.9-16.5-6-8-12.1,9.1-5.5-7.3,9.5-7.2-6-8-9.5,7.2-4.8-6.3,11.5-8.7-5.8-7.7h0ZM828,187.5c-3.8.2-7.5,1.6-10.5,4-9.5,7.2-9,14.9,1.6,29,11.1,14.7,16.4,17.9,26.2,10.5,2.7-1.9,4.6-4.8,5.2-8l2.9.9,5-3.8-15.6-20.7-12.3,9.2,5.2,7,2.5-1.9,2.8,3.7c1.7,2.2,1.3,3.9-.2,5.1s-3.2,1.1-4.9-1.2l-12.9-17c-1.7-2.2-1.3-3.9.2-5s3.2-1.1,4.9,1.2l1.6,2.2,9.8-7.4c-2.3-3-3.9-4.7-5.5-5.8-1.7-1.3-3.8-2-6-2h0ZM708.9,195.2l-21.3,16.1,28.1,37.3,21.9-16.5-6-8-12.1,9.1-5.5-7.3,9.5-7.1-6-8-9.5,7.1-4.8-6.3,11.5-8.7-5.8-7.7h0ZM920.8,196.5c-3.6,0-7.2,1.6-10.5,4-9.5,7.2-9,14.9,1.6,29,6.7,8.9,11.4,13.5,16.1,14.1v-14.1l-12.2-16.2c-1.7-2.2-1.3-3.9.2-5.1s3.2-1.1,4.9,1.2l1.7,2.2,5.4-4.1v-8.2c-.3-.3-.6-.6-1-.9-1.8-1.2-4-1.8-6.2-1.9h0ZM497.8,200.1c-.7,0-1.4,0-2.1.1v10.7c1,.6,1.9,1.4,2.5,2.4,3.1,4.1,2.1,5.8-1,8.2l-1.5-2v19.7l8.2,10.9,9.5-7.1-11-14.5,1.7-1.3c9-6.8,9.9-11.8,3.4-20.4-3.2-4.4-6.4-6.5-9.7-6.7h0ZM801.8,204.3l-21.3,16.1,28.1,37.3,21.9-16.5-6-8-12.1,9.1-5.5-7.3,9.5-7.2-6-8-9.5,7.1-4.8-6.3,11.5-8.7-5.8-7.6h0ZM590.6,209.1c-3.4-.2-6.9,1.4-10.9,4.4l-11.1,8.4,28.1,37.3,9.5-7.2-11-14.5,1.7-1.3c9-6.8,9.9-11.8,3.4-20.4-3.1-4.4-6.3-6.4-9.7-6.7h0ZM894.6,213.4l-21.3,16.1,28.1,37.3,21.9-16.5-6-8-12.1,9.1-5.5-7.3,9.5-7.1-6-8-9.5,7.1-4.8-6.3,11.5-8.6-5.8-7.8h0ZM928.1,214.2l-4.7,3.5,4.7,6.2v-9.7ZM683.5,218.2c-3.4-.2-6.9,1.4-10.9,4.4l-11.1,8.3,28.1,37.3,9.5-7.2-11-14.5,1.7-1.3c9-6.8,9.9-11.8,3.4-20.4-3.2-4.3-6.4-6.3-9.7-6.6h0ZM587.6,219.6c1.2.1,2.2,1,3.5,2.8,3.1,4.1,2.2,5.8-1,8.2l-6.8-9c1.8-1.5,3.1-2.2,4.3-2h0ZM776.3,227.3c-3.4-.2-6.9,1.4-10.9,4.4l-11.1,8.3,28.1,37.3,9.5-7.2-11-14.5,1.7-1.3c9-6.8,10-11.8,3.4-20.4-3.1-4.3-6.3-6.4-9.7-6.6h0ZM680.4,228.6c1.2.1,2.2,1.1,3.5,2.8,3.1,4.1,2.2,5.8-1,8.2l-6.8-9c1.8-1.4,3.1-2.1,4.3-2h0ZM550.6,235.5l-9.9,7.4,28.1,37.3,9.8-7.4-28-37.3h0ZM869.2,236.4c-3.4-.2-6.9,1.4-10.9,4.4l-11.1,8.4,28.1,37.3,9.5-7.2-11-14.5,1.7-1.3c9-6.8,9.9-11.8,3.5-20.4-3.3-4.4-6.5-6.5-9.8-6.7h0ZM773.2,237.7c1.2.1,2.2,1,3.5,2.8,3.1,4.1,2.2,5.8-1,8.2l-6.8-9c1.8-1.4,3.2-2.1,4.3-2h0ZM643.4,244.6l-9.8,7.4,28.1,37.3,9.8-7.4-28.1-37.3ZM866.1,246.8c1.2.1,2.2,1,3.5,2.8,3.1,4.1,2.2,5.8-1,8.2l-6.8-9c1.8-1.4,3.1-2.1,4.3-2ZM532.6,251.9c-3.6,0-7.2,1.6-10.5,4-9.5,7.1-9,14.9,1.6,29,11.1,14.7,16.4,17.9,26.2,10.5,2.7-1.9,4.6-4.8,5.3-8l2.9.9,5-3.8-15.6-20.7-12.3,9.3,5.2,6.9,2.5-1.8,2.8,3.7c1.7,2.2,1.3,3.9-.2,5.1s-3.2,1.1-4.9-1.2l-12.8-17c-1.7-2.2-1.3-3.9.2-5s3.2-1.1,4.9,1.2l1.6,2.2,9.8-7.4c-2.3-3-3.9-4.8-5.5-5.8-1.8-1.4-4-2.1-6.2-2.1h0ZM736.2,253.6l-9.8,7.4,28.1,37.3,9.8-7.4-28.1-37.3ZM625.5,261c-3.6,0-7.2,1.6-10.5,4-9.5,7.2-9,14.9,1.6,29,11.1,14.7,16.4,17.9,26.2,10.5,2.7-1.9,4.6-4.8,5.2-8l2.9.9,5-3.8-15.6-20.7-12.3,9.3,5.2,6.9,2.5-1.9,2.8,3.7c1.7,2.2,1.3,3.9-.2,5.1s-3.2,1-4.9-1.2l-12.8-17c-1.7-2.2-1.3-3.9.2-5.1s3.2-1.1,4.9,1.2l1.7,2.2,9.8-7.4c-2.3-3-3.8-4.8-5.5-5.8-1.9-1.2-4-1.9-6.2-1.9h0ZM829.1,262.8l-9.9,7.4,28.1,37.3,9.8-7.4-28-37.3h0ZM506.4,268.8l-10.7,8.1v22.1l17.5,23.2,21.9-16.5-6-8-12.1,9.1-5.5-7.3,9.5-7.2-6-8-9.5,7.2-4.8-6.4,11.5-8.7-5.8-7.6h0ZM718.3,270.1c-3.9.2-7.6,1.6-10.5,4-9.5,7.1-9,14.9,1.6,29,11.1,14.7,16.4,17.9,26.2,10.5,2.7-1.9,4.6-4.8,5.2-8l2.9.9,5-3.8-15.6-20.7-12.3,9.3,5.2,7,2.5-1.9,2.8,3.7c1.7,2.2,1.3,3.9-.2,5.1s-3.2,1.1-4.9-1.2l-12.8-17c-1.7-2.2-1.3-3.9.2-5.1s3.2-1.1,4.9,1.2l1.7,2.2,9.8-7.4c-2.3-3-3.9-4.8-5.5-5.8-1.8-1.3-4-2-6.2-2h0ZM921.9,271.9l-9.8,7.4,16,21.3v-20.5l-6.2-8.2h0ZM599.2,277.9l-21.3,16,28.2,37.3,21.9-16.5-6-8-12.1,9.1-5.5-7.3,9.5-7.1-6-8-9.5,7.1-4.8-6.3,11.5-8.7-5.9-7.6h0ZM811.1,279.3c-3.8.2-7.5,1.6-10.5,4-9.5,7.1-9,14.9,1.6,29,11.1,14.7,16.4,17.9,26.2,10.5,2.7-1.9,4.6-4.8,5.2-8l2.9.9,5-3.8-15.6-20.7-12.3,9.3,5.2,7,2.5-1.9,2.8,3.7c1.7,2.2,1.3,3.9-.2,5.1s-3.2,1.1-4.9-1.2l-12.8-17.1c-1.7-2.2-1.3-3.9.2-5s3.2-1.1,4.9,1.2l1.7,2.2,9.8-7.4c-2.3-3-3.9-4.8-5.5-5.8-1.8-1.3-4-2-6.2-2h0ZM692.1,286.9l-21.3,16.1,28.1,37.3,21.9-16.5-6.1-8-12,9.1-5.5-7.3,9.5-7.1-6-8-9.5,7.1-4.8-6.3,11.5-8.6-5.8-7.8h0ZM904,288.3c-3.8.2-7.5,1.6-10.5,4-9.5,7.1-9,14.9,1.6,29,11.1,14.7,16.4,17.9,26.2,10.5,2.7-1.9,4.6-4.8,5.3-8l1.6.5v-11.8l-9.2-12.3-12.3,9.3,5.3,7,2.4-1.9,2.8,3.7c1.7,2.2,1.3,3.9-.2,5.1s-3.2,1.1-4.9-1.2l-12.8-17c-1.7-2.2-1.3-3.9.2-5.1s3.2-1.1,4.9,1.2l1.7,2.2,9.8-7.4c-2.3-3-3.8-4.8-5.5-5.8-2.1-1.3-4.2-2-6.4-2h0ZM785,296l-21.4,16.1,28.1,37.3,21.9-16.5-6-8-12.1,9.1-5.4-7.3,9.5-7.1-6-8-9.5,7.1-4.8-6.3,11.5-8.6-5.8-7.8h0ZM573.8,300.9c-3.4-.2-6.9,1.4-10.9,4.4l-11.1,8.4,28.1,37.3,9.5-7.2-11-14.5,1.7-1.3c9-6.8,9.9-11.8,3.4-20.4-3.2-4.4-6.4-6.5-9.7-6.7h0ZM877.8,305.2l-21.3,16.1,28.1,37.3,21.9-16.5-6-8-12.1,9.1-5.5-7.3,9.5-7.1-6-8-9.5,7.1-4.8-6.4,11.5-8.6-5.8-7.7h0ZM666.6,310c-3.4-.2-6.9,1.4-10.9,4.4l-11.1,8.3,28.1,37.3,9.5-7.1-11-14.5,1.7-1.3c9-6.8,10-11.8,3.5-20.4-3.2-4.4-6.4-6.5-9.8-6.7h0ZM570.7,311.3c1.2.1,2.2,1,3.5,2.8,3.1,4.1,2.2,5.8-1,8.2l-6.8-9.1c1.8-1.4,3.1-2,4.3-1.9h0ZM759.5,319.1c-3.4-.2-6.9,1.4-10.9,4.4l-11.1,8.4,28.1,37.3,9.5-7.2-11-14.5,1.7-1.3c9-6.8,9.9-11.8,3.4-20.4-3.2-4.4-6.4-6.5-9.7-6.7h0ZM663.5,320.4c1.2.1,2.2,1,3.5,2.8,3.1,4.1,2.2,5.8-1,8.2l-6.8-9c1.9-1.5,3.2-2.1,4.3-2h0ZM533.7,327.3l-9.9,7.4,28.1,37.3,9.8-7.4-28-37.3h0ZM852.3,328.2c-3.4-.2-6.9,1.4-10.9,4.4l-11.1,8.3,28.1,37.3,9.5-7.1-11-14.5,1.7-1.3c9-6.8,10-11.8,3.5-20.4-3.3-4.5-6.5-6.5-9.8-6.7h0ZM756.4,329.5c1.2.1,2.2,1,3.5,2.8,3.1,4.1,2.2,5.8-1,8.2l-6.8-9c1.8-1.5,3.1-2.2,4.3-2h0ZM495.7,333.5v1.8l.9-.7-.9-1.1h0ZM626.6,336.4l-9.8,7.4,28.1,37.3,9.8-7.4-28.1-37.3ZM849.2,338.6c1.2.1,2.2,1,3.5,2.8,3.2,4.1,2.2,5.8-1,8.2l-6.8-9c1.8-1.5,3.1-2.2,4.3-2h0ZM515.8,343.7c-3.6,0-7.2,1.5-10.5,4-9.5,7.2-9,14.9,1.6,29,11.1,14.7,16.4,17.9,26.2,10.5,2.7-1.9,4.6-4.8,5.2-8l2.9.9,5-3.8-15.6-20.7-12.3,9.3,5.2,7,2.5-2,2.8,3.7c1.7,2.2,1.3,3.9-.2,5.1s-3.3,1-4.9-1.2l-12.8-17.1c-1.7-2.2-1.3-3.9.2-5s3.2-1,4.9,1.2l1.6,2.2,9.9-7.4c-2.3-3-3.9-4.8-5.5-5.8-1.8-1.3-4-1.9-6.2-1.9h0ZM719.4,345.5l-9.8,7.4,28.1,37.3,9.8-7.4-28.1-37.3ZM928.1,346.3l-4.9,3.7,4.9,6.5v-10.2ZM608.6,352.8c-3.9.2-7.5,1.6-10.5,4-9.5,7.1-9,14.9,1.6,29,11.1,14.7,16.4,17.9,26.2,10.5,2.7-1.9,4.6-4.8,5.2-8l2.9.9,5-3.8-15.5-20.8-12.3,9.3,5.2,7,2.5-1.8,2.8,3.7c1.7,2.2,1.3,3.9-.2,5.1s-3.2,1.1-4.9-1.2l-12.8-17c-1.7-2.2-1.3-3.9.2-5s3.2-1.1,4.9,1.2l1.7,2.2,9.8-7.4c-2.3-3-3.8-4.8-5.5-5.8-1.9-1.4-4.1-2.1-6.3-2.1h0ZM812.2,354.5l-9.9,7.4,28.1,37.3,9.8-7.4-28-37.3h0ZM701.5,361.9c-3.6,0-7.2,1.5-10.5,4-9.5,7.2-9,14.9,1.6,29,11.1,14.7,16.4,17.9,26.2,10.5,2.7-1.9,4.6-4.8,5.2-8l2.9.9,5-3.8-15.6-20.7-12.3,9.3,5.2,7,2.5-1.8,2.8,3.7c1.7,2.2,1.3,3.9-.2,5.1s-3.2,1-4.9-1.2l-12.8-17c-1.7-2.2-1.3-3.9.2-5s3.2-1.1,4.9,1.2l1.7,2,9.9-7.4c-2.3-3-3.9-4.8-5.5-5.8-2-1.4-4.1-2-6.3-2h0ZM905.1,363.6l-9.8,7.4,28.1,37.3,4.8-3.6v-10.6l-23.1-30.5h0ZM582.4,369.6l-21.3,16.1,28.1,37.3,21.9-16.5-6-8-12.1,9.1-5.5-7.3,9.5-7.1-6-8-9.5,7.2-4.8-6.3,11.5-8.7-5.8-7.8h0ZM794.3,371c-3.6,0-7.2,1.5-10.5,4-9.5,7.2-9,14.9,1.6,29,11.1,14.7,16.4,17.9,26.2,10.5,2.7-1.9,4.6-4.8,5.2-8l2.9.9,5-3.8-15.6-20.7-12.3,9.3,5.2,7,2.5-1.9,2.8,3.7c1.7,2.2,1.3,3.9-.2,5.1s-3.2,1.1-4.9-1.2l-12.9-17c-1.7-2.2-1.3-3.9.2-5s3.2-1.1,4.9,1.2l1.6,2.2,9.8-7.4c-2.3-3-3.8-4.7-5.5-5.8-1.7-1.5-3.8-2.1-6-2.1h0ZM498.2,376.1l-2.5,1.9v12.5l8.5-6.4-6-8ZM675.3,378.7l-21.3,16.1,28.1,37.3,21.9-16.5-6-8-12.1,9.1-5.5-7.3,9.5-7.2-6-8-9.5,7.2-4.8-6.4,11.5-8.6-5.8-7.7h0ZM887.1,380.1c-3.8.2-7.5,1.6-10.5,4-9.5,7.1-9,14.9,1.6,29,11.1,14.7,16.4,17.9,26.2,10.5,2.7-1.9,4.6-4.8,5.2-8l2.9.9,5-3.8-15.5-20.8-12.3,9.3,5.2,7,2.5-1.9,2.8,3.7c1.7,2.2,1.3,3.9-.2,5.1s-3.2,1.1-4.9-1.2l-12.8-17c-1.7-2.2-1.3-3.9.2-5.1s3.2-1.1,4.9,1.2l1.6,2.2,9.9-7.4c-2.3-3-3.9-4.8-5.5-5.8-1.9-1.3-4.1-1.9-6.3-1.9h0ZM768.1,387.8l-21.3,16.1,28.1,37.3,21.9-16.5-6-8-12.1,9.1-5.5-7.3,9.5-7.2-6-8-9.5,7.1-4.8-6.3,11.5-8.6-5.8-7.7h0ZM512.2,389.4l-12.1,9.1-4.5-5.9v20.5l.6.9,21.9-16.5-5.9-8.1ZM556.9,392.6c-3.4-.2-6.9,1.4-10.9,4.4l-11.1,8.4,28.1,37.3,9.5-7.1-11-14.5,1.7-1.3c9-6.8,9.9-11.8,3.4-20.4-3.1-4.5-6.3-6.5-9.7-6.8h0ZM860.9,396.9l-21.4,16,28.1,37.3,21.9-16.5-6-8-12.1,9.1-5.5-7.3,9.5-7.1-6-8-9.5,7.1-4.8-6.3,11.5-8.6-5.7-7.7ZM649.8,401.7c-3.4-.2-6.9,1.4-10.9,4.4l-11.1,8.3,28.1,37.3,9.5-7.2-11-14.5,1.7-1.3c9-6.8,9.9-11.8,3.5-20.4-3.3-4.3-6.5-6.3-9.8-6.6h0ZM553.9,403c1.2.1,2.2,1,3.5,2.8,3.1,4.1,2.2,5.8-1,8.2l-6.8-9c1.8-1.4,3.1-2.1,4.3-2h0ZM742.6,410.8c-3.4-.2-6.9,1.4-10.9,4.4l-11.1,8.4,21.5,28.4h14.9l-9.7-12.8,1.7-1.3c9-6.8,10-11.8,3.5-20.4-3.4-4.4-6.5-6.5-9.9-6.7h0ZM646.7,412.1c1.2.1,2.2,1,3.5,2.8,3.1,4.1,2.2,5.8-1,8.2l-6.8-9c1.8-1.4,3.1-2.1,4.3-2h0ZM516.9,419l-9.9,7.4,19.3,25.6h15.4l-24.8-33ZM835.4,419.9c-3.4-.2-6.9,1.4-10.9,4.4l-11.1,8.4,14.6,19.4h14.9l-2.9-3.7,1.7-1.3c9-6.8,9.9-11.8,3.4-20.4-3.1-4.5-6.3-6.6-9.7-6.8h0ZM739.5,421.2c1.2.1,2.2,1,3.5,2.8,3.1,4.1,2.2,5.8-1,8.2l-6.8-9c1.9-1.4,3.1-2.1,4.3-2h0ZM928.1,425.9c-1.5.8-3,1.7-4.4,2.7l-11.1,8.3,11.3,15h4.1v-14.3l-.8-1.1c.3-.2.5-.3.8-.5v-10.1h.1ZM609.7,428.1l-9.9,7.4,12.4,16.5h15.4l-17.9-23.9ZM832.3,430.3c1.2.1,2.2,1,3.5,2.8,3.2,4.1,2.2,5.8-1,8.2l-6.8-9c1.9-1.5,3.2-2.1,4.3-2h0ZM498.9,435.5c-1.1,0-2.2.2-3.2.5v10.6c1.1-.2,2.3.3,3.4,1.8l1.6,2.2,9.9-7.4c-2.3-3-3.9-4.7-5.5-5.8-1.8-1.3-4-2-6.2-1.9h0ZM702.5,437.2l-9.8,7.4,5.5,7.4h15.4l-11.1-14.8h0ZM591.8,444.6c-3.9.2-7.5,1.6-10.5,4-1.3,1-2.5,2.2-3.6,3.4h25.7c-2.2-2.9-3.7-4.6-5.3-5.6-2-1.2-4.1-1.9-6.3-1.8h0ZM795.4,446.3l-7.6,5.7h11.9l-4.3-5.7h0ZM513.8,447.3l-6.2,4.7h9.7l-3.5-4.7ZM894.6,450.5l-1.9,1.4h3l-1.1-1.4Z"/>
    <g id="shockwave">
      <path class="cls-6" d="M550.6,88.8l10.8,19.5-65.7,46.3v34.6l65.4,46.1-53.1,83.6,108.7,38.5-6.6,103.5,94.8-31.5,75.8,91.9h5.6l51.8-69.8,90,51.8v-57.5l-7.1,16.5-84.7-46.2-52.7,73.9-51.9-92.3-92.8,27,5.7-101.3-95.3-22.8,47-85.6-79-42.8,91.9-55.7-19.6-27.7h-39Z"/>
      <path class="cls-5" d="M582.5,88.8l18.2,25.7-95.2,57.7,8.9,4.8,73.8,40-47.7,87.2,98,23.4-5.9,104.7,96.2-28,54.1,96.3,55.1-77.1,85.7,46.8,4.3-10v-29.4l-9.9,23-83.6-45.6-50.4,70.6-49.6-88.4-89.3,26,5.5-98-92.6-22.1,46.1-84-75.3-40.8,88.5-53.7-20.7-29.1h-14.2,0Z"/>
    </g>
    <g id="fist">
      <path class="cls-5" d="M642.1,502s38.2-48.6,46.4-58.1,12.6-14.9,12.6-14.9c0,0,58.1-6.8,100.8-34.5,42.7-27.7,84.2-93,84.7-105.6s-7.2-29.3-16.6-34.2c-4.6-2.6-9.4-4.8-14.3-6.6,0,0,8.2-10.3,0-27.4s-12.6-18.4-23.6-20.6l-11-2.2s8.2-8.3-4.4-23.2-26.3-20.9-31.8-19.8l-5.5,1.1s-6.6-6.6-22.5-18.1-25.3-14.4-32.9-9.9-29.4,22.1-49.1,24.4-51.5,22.2-60.2,45.4-22.9,67.5-25,93.9-7.6,37.6-13,43.1-65.2,49-70.6,57.9,0,119.8,0,119.8h128.3c0-.1,7.8-10.5,7.8-10.5h-.1Z"/>
      <path class="cls-6" d="M871.3,298.2c-4.6,2.3-13.7,13.7-18.2,17.2s-29.7,30.9-29.7,30.9c0,0-6.3,13.1-17.7,6.3-11.4-6.8-13.1-10.8-10.3-20.6,2.8-9.8,15.4-24.6,25.1-36.6s22.8-22.9,29.1-26.9c3.9-2.5,8.1-4.4,12.5-5.8,0,0,14.8,8.6,17.1,15.4s-3.4,17.8-7.9,20.1M746.6,256.2s-6.8,12.6-21.1,1.8-12.6-11.4-7.5-20,10.3-12.6,10.3-12.6c1.5,5.2,4.2,9.9,8,13.7,4.1,4,8.8,7.4,13.8,10.3l-3.5,6.8h0ZM811.6,193.2c-2.2,5.9-6.5,10.9-12.1,13.9-1.5.8-3.1,1.4-4.7,1.8l-2.4-2.6c-.4-.3-14.9-11.8-14.9-11.8l-12.6-11.5c3.8-5.6,9.2-13.1,12.4-14.9,2.7-1.5,5.2-3.2,7.6-5.2,0,0,1.9-4.6,16.2,6.2s11.7,20.6,10.5,24.1M751.7,168.3s-11.6-7.6-23.2-11.5c-11.6-3.9-10-7-10-7,0,0,5.4-13.1,10-14.7s17.8,0,26.3,8.5,7.7,8.5,6.2,13.9-9.3,10.8-9.3,10.8M874.1,255.3c-4.8-2.7-9.8-4.9-14.9-6.8,0,0,8.5-10.6,0-28.3s-13.2-19.1-24.6-21.4l-11.4-2.3s8.5-8.6-4.6-24-27.5-21.7-33.2-20.5l-5.7,1.2s-6.9-6.8-23.5-18.8-26.3-14.8-34.3-10.2-30.9,22.9-51.4,25.3-53.7,22.9-62.8,47-23.8,69.8-26.1,97.2c-2.3,27.4-7.9,38.9-13.6,44.6-5.7,5.7-56.6,39.8-62.3,49-2.8,4.5-3.8,34.6-4.1,63.8,41.8-28,94.9-64,99-68.8,4-4.6,7.4-9.6,10.2-14.9,0,0-10.3-6.9-13.8-19.5-2.1-7.3-.6-15.1,4-21.1,0,0-2.3-16,.5-31.4s7.9-40,9-43.5,13.1-34.9,18.2-48.1c5.1-13.2,18.2-24,29.1-30.3s26.3-8.1,41.7-12.1,39.4,6.2,48.1,14.8c3.9,3.9,8.5,7,13.5,9.2l13.3,12,15.2,12h0c0,.1-.4.1-.5.1,2.2,2.2,4.2,4.4,6,6.4,3.6,4.5,6.3,8.7,6.1,10.6l.7,7.5,3.6-7.2c-.4-1.6-.9-3.1-1.6-4.5,1.1-1.7,2.3-3.3,3.6-4.8,8-9.1,13.1-14.3,13.1-14.3,0,0,17.1,3,25.1,14.4s3.9,14.7,3.9,14.7c0,0-14,19.8-20.9,25.5s-26.2,27.9-26.2,27.9c0,0-14.7,21.6-27.9,17.6s-20.6-16-13.8-26.2,13.1-20,13.1-20c0,0,21-2.2,25.6-11.3,2-4,1.9-6.4,1.2-8-1.8,1.8-3.7,3.4-5.7,4.9-5.7,4.6-10.3,0-29.1-13.1s-29.8-34.2-29.8-34.2c0,0-2.3,1.1-16.5,6.3s-33.2-6.7-33.2-6.7l-5.1,5.1c-5.2,5.1-18.3,0-18.3,0,0,0-1.7,7.4-7.4,22.3-1.5,4-2.5,6.3-3,7.6l8.2,13.6c8.6,14.2,2.9,45.1,2.9,45.1,0,0,12.4,1.6,20.4,7.3.6.4,1.2.9,1.7,1.5.5,3.5.7,7,.7,10.5,0,5.7-.6,11.4-1.6,17-1.6,9.5-4,18.9-7,28-.8,2.4-1.7,4.8-2.9,7l5.5,3.4c.3-.5,5.6-9.1,10.8-37.2,1.1-6,1.7-12.1,1.7-18.2s-.7-12-2.1-17.8c4.5-4.4,9.9-7.8,15.7-10.1,0,0,6.9,1.1,21.2,5.1s46.3,33.6,50.4,42.2-5.2,9.7-13.7,10.3-18.8,25.8-8,34.3-1.2,20.9-3.4,24.4-9.5,3.5-18.5,9.3-83.5,9.3-83.5,9.3c0,0,14.8,25.3,5.7,43.6-4.5,9-34,33.5-63.1,56.2l39.2,2.1,3.4-5.7s39.8-50.4,48.4-60.1,13.1-15.4,13.1-15.4c0,0,60.6-7,105.1-35.7s87.8-96.2,88.4-109.3-7.5-30.3-17.2-35.4"/>
    </g>
    <path id="border" class="cls-5" d="M919.4,512.5h-415.1V97.4h415.1v415.1h0ZM495.7,521.2h432.4V88.8h-432.4v432.4Z"/>
    <rect id="label_background" data-name="label background" class="cls-5" x="495.7" y="452" width="429.7" height="69.2"/>
    <path id="TM" class="cls-6" d="M910.8,130.9h-4v-19.5h0l-6.9,19.6h-3.3l-6.5-19.6h0v19.6h-4v-24.9h6.4l6.2,18.5h0l6-18.5h6.2v24.8h-.1ZM882.9,106.1v3.2h-6.8v21.6h-4v-21.6h-6.8v-3.2h17.6Z"/>
    <g id="VIOLENCE">
      <path class="cls-6" d="M615.6,462.3h10.1l-8.5,46.6h-10.8l-9.9-46.6h10.4l4.5,26.9h0l4.1-26.9h.1Z"/>
      <path class="cls-6" d="M629,462.3h10.9v46.6h-10.9v-46.6h0Z"/>
      <path class="cls-6" d="M678.6,508.9v-46.6h10.9v36.6h14v10h-24.9Z"/>
      <path class="cls-6" d="M707.4,508.9v-46.6h23.7v9.6h-12.8v7.9h10.5v10h-10.5v9.1h13.4v10h-24.3Z"/>
      <path class="cls-6" d="M656.8,496.2c0,2.8,1.2,3.9,2.9,3.9s2.8-1.1,2.8-3.9v-21.2c0-2.8-1.2-3.9-2.8-3.9s-2.9,1.1-2.9,3.9v21.2ZM646.1,471.9c1.6-7.5,6.6-10.4,13.6-10.4s12,2.9,13.6,10.4c.5,2.4.7,6.6.7,13.7s-.2,11.3-.7,13.7c-1.5,7.5-6.6,10.4-13.6,10.4s-12-2.9-13.6-10.4c-.5-2.4-.7-6.5-.7-13.7s.2-11.3.7-13.7"/>
      <path class="cls-6" d="M736.2,508.9v-46.6h10.5l7.1,20.6h0v-20.6h9.3v46.6h-10.1l-7.4-24.2h-.2v24.2h-9.3.1Z"/>
      <path class="cls-6" d="M779.1,496.2c0,2.8,1.2,3.9,2.8,3.9s3-1.1,3-3.9v-8.2h10.9c0,4.1-.2,8.2-.8,12.2-1.4,6.7-7,9.5-13.5,9.5-11,0-14.3-6.7-14.3-24.1s3.2-24.1,14.3-24.1,11.8,2.7,13.5,9.2c.6,3.7.9,7.4.8,11.2h-10.9v-6.9c0-2.8-1.3-3.9-3-3.9s-2.8,1.1-2.8,3.9v21.2h0Z"/>
      <path class="cls-6" d="M801.1,508.9v-46.6h23.6v9.6h-12.8v7.9h10.6v10h-10.5v9.1h13.4v10h-24.3Z"/>
    </g>
    <rect id="rect4" class="cls-5" x="970" y="93.2" width="422.9" height="424.3"/>
    <g id="g116">
      <path class="cls-3" d="M991.4,146.6l-11.1-14.8,1.7-1.3c9.2-6.9,10.1-12,3.5-20.8-5.4-7.2-10.6-8.3-16.6-5.2v10.2c3.1-2.1,4.6-1.8,7.1,1.6,3.2,4.3,2.2,5.9-1,8.3l-6.1-8v20.1l13,17.2,9.5-7.3h0Z"/>
      <polygon class="cls-3" points="1008.5 133.8 1030.9 116.9 1024.7 108.8 1012.4 118 1006.8 110.6 1016.5 103.3 1010.3 95.2 1000.7 102.5 995.8 96 1001 92.1 984.7 92.1 979.9 95.7 1008.5 133.8"/>
      <path class="cls-3" d="M1045.9,106.5c2.8-1.9,4.7-4.9,5.4-8.2l2.9.9,5.2-3.8-2.5-3.3h-15.8l.5.7c1.7,2.3,1.3,4-.2,5.2s-3.3,1.1-5.1-1.2l-3.5-4.7h-16.3c.8,1.2,1.7,2.5,2.8,3.8,11.3,14.9,16.7,18.1,26.6,10.6Z"/>
      <path class="cls-3" d="M968.9,204v16.4c5-5.1,4.9-9.6,0-16.4Z"/>
      <polygon class="cls-3" points="968.9 233.1 968.9 244.1 974.2 240.1 968.9 233.1"/>
      <polygon class="cls-3" points="962.7 189.3 968.9 197.6 968.9 184.5 962.7 189.3"/>
      <polygon class="cls-3" points="1013.7 210.5 1007.6 202.4 995.3 211.6 989.7 204.2 999.3 196.9 993.2 188.8 983.5 196.1 978.7 189.6 990.3 180.8 984.3 172.8 968.9 184.5 968.9 197.6 991.3 227.3 1013.7 210.5"/>
      <path class="cls-3" d="M1028.7,200.2c2.8-1.9,4.7-4.9,5.4-8.2l2.9.9,5.2-3.8-15.9-21.2-12.6,9.4,5.3,7.1,2.5-1.9,2.8,3.8c1.7,2.2,1.3,4-.2,5.2s-3.3,1-5.1-1.2l-13.1-17.3c-1.7-2.3-1.3-4,.2-5.2s3.3-1,5.1,1.2l1.7,2.2,10-7.6c-1.5-2.2-3.4-4.2-5.6-5.9-5.3-3.4-11.7-1.8-17,2.2-9.7,7.3-9.2,15.2,1.6,29.6,11.4,15,16.9,18.2,26.8,10.7h0Z"/>
      <polygon class="cls-3" points="1058.2 176.9 1029.5 138.9 1019.4 146.5 1048 184.6 1058.2 176.9"/>
      <path class="cls-3" d="M1086.1,155.8l-11.2-14.8,1.7-1.3c9.2-6.9,10.1-12,3.6-20.8s-13-8.4-21.1-2.3l-11.2,8.5,28.6,38,9.6-7.3h0ZM1069.7,133.9l-7-9.2c3.8-2.8,5.3-2.7,8,.9,3.3,4.3,2.3,5.9-1,8.3Z"/>
      <polygon class="cls-3" points="1096.2 88.6 1091.6 92.1 1098.8 92.1 1096.2 88.6"/>
      <polygon class="cls-3" points="1103.2 143.1 1125.4 126.2 1119.2 118 1106.9 127.2 1101.3 119.8 1111 112.5 1104.8 104.4 1095.2 111.7 1090.3 105.2 1102.1 96.4 1098.8 92.1 1091.6 92.1 1074.5 105 1103.2 143.1"/>
      <path class="cls-3" d="M1140.6,115.9c2.8-1.9,4.7-4.9,5.4-8.2l2.9.9,5.2-3.9-9.6-12.7h-17.6l-1.3,1,5.4,7.1,2.5-1.9,2.8,3.8c1.7,2.3,1.3,4-.2,5.2s-3.2,1.1-5-1.2l-10.5-13.9h-14.3c1.2,3.7,3.8,8.1,7.7,13.2,11.2,14.8,16.6,18.1,26.6,10.6h0Z"/>
      <polygon class="cls-3" points="1170 92.7 1169.5 92.1 1153.7 92.1 1159.9 100.3 1170 92.7"/>
      <polygon class="cls-3" points="996.5 304.2 990.3 296 978.1 305.3 972.5 297.9 982.1 290.6 975.9 282.4 968.9 287.7 968.9 314 974.1 320.9 996.5 304.2"/>
      <polygon class="cls-3" points="973 274.2 968.9 268.9 968.9 277.4 973 274.2"/>
      <path class="cls-3" d="M1011.5,293.8c2.8-1.9,4.7-4.9,5.4-8.2l2.9.9,5.2-3.9-15.9-21.2-12.6,9.4,5.4,7.1,2.5-1.9,2.8,3.8c1.7,2.3,1.3,4-.2,5.2s-3.3,1-5.1-1.2l-13.2-17.3c-1.7-2.3-1.3-4,.2-5.2s3.3-1,5.1,1.2l1.7,2.2,10-7.6c-2.3-3-4-4.8-5.6-5.9-5.3-3.4-11.7-1.8-17,2.2-9.7,7.2-9.1,15.2,1.6,29.7,11.4,15,16.9,18.2,26.8,10.7h0Z"/>
      <polygon class="cls-3" points="1040.9 270.5 1012.2 232.5 1002.2 240.1 1030.9 278.1 1040.9 270.5"/>
      <path class="cls-3" d="M1063,212.5c-6.7-8.9-13-8.4-21.1-2.3l-11.2,8.5,28.7,38,9.5-7.3-11.2-14.8,1.7-1.3c9.3-6.9,10.2-12,3.6-20.8h0ZM1052.5,227.5l-7-9.2c3.8-2.8,5.3-2.7,8,.9,3.2,4.2,2.2,5.9-1,8.3h0Z"/>
      <polygon class="cls-3" points="1073.3 198.8 1085 190 1079.1 182.2 1057.3 198.6 1086 236.6 1108.3 219.9 1102.2 211.7 1089.9 220.9 1084.3 213.5 1094.1 206.2 1087.9 198 1078.1 205.3 1073.3 198.8"/>
      <path class="cls-3" d="M1123.3,209.6c2.8-1.9,4.7-4.9,5.4-8.2l2.9.9,5.2-3.8-15.9-21.2-12.6,9.4,5.4,7.1,2.5-1.9,2.8,3.8c1.7,2.3,1.3,4-.2,5.2s-3.3,1-5.1-1.2l-13.1-17.2c-1.7-2.3-1.3-4,.2-5.2s3.3-1,5.1,1.2l1.6,2.2,10-7.6c-2.3-3-3.9-4.8-5.6-5.9-5.3-3.4-11.7-1.8-17,2.2-9.7,7.3-9.2,15.2,1.6,29.6,11.4,14.8,16.9,18.1,26.8,10.6h0Z"/>
      <polygon class="cls-3" points="1152.7 186.2 1124.1 148.2 1114 155.8 1142.7 193.8 1152.7 186.2"/>
      <path class="cls-3" d="M1180.7,165l-11.2-14.8,1.7-1.3c9.2-6.9,10.1-12,3.6-20.8s-13-8.4-21.1-2.3l-11.2,8.5,28.7,38,9.5-7.3h0ZM1164.3,143.1s-6.9-9.2-7-9.2c3.9-2.8,5.3-2.7,8,.9,3.3,4.3,2.2,5.9-1,8.3Z"/>
      <polygon class="cls-3" points="1220.4 135.5 1214.2 127.3 1201.9 136.6 1196.3 129.1 1206 121.9 1199.8 113.6 1190.1 120.9 1185.2 114.5 1196.8 105.6 1191 97.8 1169.2 114.2 1197.9 152.3 1220.4 135.5"/>
      <path class="cls-3" d="M1208.5,114.6c11.3,14.9,16.7,18.2,26.7,10.7,2.8-1.9,4.7-4.9,5.4-8.2l2.9.9,5.2-3.9-15.9-21.1-12.6,9.4,5.4,7.1,2.5-1.9,2.8,3.8c1.7,2.3,1.3,4-.2,5.2s-3.2,1.1-5-1.2l-13.2-17.3c-1.7-2.3-1.3-4,.2-5.2s3.3-1,5.1,1.2l1.6,2.2,5.5-4.2h-24.1c-2.3,5.6.2,12.5,7.7,22.5h0Z"/>
      <polygon class="cls-3" points="1264.6 102 1257.1 92.1 1241.3 92.1 1254.5 109.6 1264.6 102"/>
      <polygon class="cls-3" points="973 389.3 968.9 392.4 968.9 405.3 979.2 397.4 973 389.3"/>
      <path class="cls-3" d="M994.4,387.4c2.8-1.9,4.7-4.9,5.4-8.2l2.9.9,5.2-3.9-15.9-21.2-12.6,9.4,5.4,7.1,2.5-1.9,2.8,3.8c1.7,2.2,1.3,4-.2,5.2s-3.3,1-5.1-1.2l-13.2-17.5c-1.7-2.3-1.3-4,.2-5.2s3.3-1,5.1,1.2l1.6,2.2,10-7.6c-2.3-3-4-4.8-5.6-5.9-4.3-2.8-9.4-2.2-14.1.3v33.2c10.6,13.8,16,16.5,25.6,9.3h0Z"/>
      <polygon class="cls-3" points="1023.7 364.1 995 326 985 333.7 1013.7 371.7 1023.7 364.1"/>
      <path class="cls-3" d="M1045.8,306c-6.7-8.8-13-8.3-21.1-2.2l-11.2,8.5,28.7,38,9.5-7.4-11.2-14.8,1.7-1.3c9.3-6.9,10.2-12,3.6-20.8h0ZM1035.3,321l-7-9.2c3.8-2.8,5.3-2.7,8,.9,3.3,4.2,2.3,5.8-1,8.3h0Z"/>
      <polygon class="cls-3" points="1091.2 313.2 1085 305.1 1072.8 314.4 1067.2 307 1076.8 299.7 1070.6 291.6 1060.9 298.9 1056 292.4 1067.7 283.6 1061.8 275.8 1040.1 292.2 1068.8 330.2 1091.2 313.2"/>
      <path class="cls-3" d="M1094.9,260.6c-5.3-3.4-11.7-1.8-17,2.2-9.6,7.3-9.1,15.2,1.7,29.6,11.2,15,16.7,18.2,26.7,10.8,2.8-1.9,4.7-4.9,5.4-8.2l2.9.9,5.2-3.9-15.9-21.2-12.6,9.4,5.4,7.1,2.5-1.9,2.8,3.8c1.7,2.2,1.3,3.9-.2,5.2s-3.3,1-5.1-1.2l-13.2-17.3c-1.7-2.3-1.3-3.9.2-5.2s3.3-1,5.1,1.2l1.6,2.2,10-7.6c-2.3-3.1-3.9-4.8-5.5-5.9Z"/>
      <polygon class="cls-3" points="1096.9 249.4 1125.6 287.4 1135.6 279.8 1106.9 241.8 1096.9 249.4"/>
      <path class="cls-3" d="M1136.6,219.4l-11.2,8.5,28.7,38,9.5-7.3-11.2-14.8,1.7-1.3c9.2-6.9,10.1-12,3.6-20.8s-13-8.4-21.1-2.3h0ZM1147.2,236.7l-7-9.2c3.8-2.8,5.3-2.7,8,.9,3.2,4.3,2.2,5.9-1,8.3h0Z"/>
      <polygon class="cls-3" points="1173.6 191.4 1151.9 207.8 1180.6 245.8 1203 228.9 1196.8 220.7 1184.6 230 1179 222.6 1188.6 215.3 1182.5 207.2 1172.7 214.5 1167.9 208 1179.5 199.2 1173.6 191.4"/>
      <path class="cls-3" d="M1195.5,186.3c1.6-1.1,3.3-1,5.1,1.2l1.6,2.2,10-7.6c-1.6-2.2-3.4-4.2-5.6-5.9-5.3-3.4-11.7-1.8-17,2.2-9.6,7.3-9.1,15.2,1.7,29.6,11.2,14.9,16.7,18.1,26.7,10.6,2.8-1.9,4.7-4.9,5.4-8.2l2.9.9,5.2-3.8-15.9-21.2-12.5,9.5,5.4,7.1,2.5-1.9,2.8,3.8c1.7,2.3,1.3,4-.2,5.2s-3.3,1.1-5.1-1.2l-13.2-17.2c-1.7-2.4-1.3-4.1.2-5.3h0Z"/>
      <polygon class="cls-3" points="1208.7 165.2 1237.4 203.2 1247.4 195.6 1218.7 157.5 1208.7 165.2"/>
      <path class="cls-3" d="M1275.4,174.4l-11.1-14.8,1.7-1.3c9.2-6.9,10.1-12,3.6-20.8s-13-8.4-21.1-2.3l-11.2,8.5,28.7,38,9.4-7.3h0ZM1259,152.5l-7-9.2c3.8-2.8,5.3-2.7,8,.9,3.3,4.2,2.3,5.8-1,8.3h0Z"/>
      <polygon class="cls-3" points="1314.8 144.7 1308.6 136.4 1296.3 145.8 1290.7 138.4 1300.5 131.1 1294.3 123 1284.7 130.3 1279.8 123.8 1291.6 115 1285.7 107.1 1263.9 123.6 1292.6 161.6 1314.8 144.7"/>
      <path class="cls-3" d="M1305.1,92h13.5c-4.2-2.7-9.1-2.2-13.5,0Z"/>
      <path class="cls-3" d="M1303.1,123.9c11.2,14.9,16.7,18.2,26.7,10.6,2.8-1.9,4.7-4.9,5.4-8.2l2.9.9,5.2-3.8-15.9-21.2-12.6,9.4,5.4,7.1,2.5-1.9,2.8,3.8c1.7,2.3,1.3,4-.2,5.2s-3.2,1.1-5-1.2l-13.2-17.2c-1.7-2.3-1.3-4.1.2-5.2s3.3-1,5.1,1.2l1.7,2.2,10-7.6c-1.6-2.2-3.4-4.2-5.6-5.9h-13.4c-1.3.6-2.4,1.4-3.6,2.2-9.8,7.3-9.2,15.2,1.6,29.6h0Z"/>
      <polygon class="cls-3" points="1359.3 111.2 1344.8 92.1 1329 92.1 1349.2 118.8 1359.3 111.2"/>
      <polygon class="cls-3" points="1384.6 92.1 1373.7 92.1 1377.7 97.3 1384.6 92.1"/>
      <polygon class="cls-3" points="968.9 453 968.9 454 978.7 454 974.7 448.6 968.9 453"/>
      <path class="cls-3" d="M971.5,444.4c-1-1.2-1.8-2.2-2.5-3.1v5l2.5-1.9Z"/>
      <polygon class="cls-3" points="967.8 427.2 968.9 428.7 968.9 426.4 967.8 427.2"/>
      <polygon class="cls-3" points="968.9 426.4 968.9 428.7 988 454 1003.8 454 977.9 419.6 968.9 426.4"/>
      <path class="cls-3" d="M1025.1,420.2c9.2-6.9,10.1-12,3.5-20.8s-13-8.3-21.1-2.2l-11.2,8.5,28.7,38,9.5-7.4-11.2-14.8,1.8-1.3h0ZM1018.1,414.6s-6.9-9.2-7-9.2c3.8-2.8,5.3-2.7,8,.9,3.3,4.2,2.3,5.8-1,8.3h0Z"/>
      <polygon class="cls-3" points="1055.4 407.9 1049.8 400.5 1059.5 393.2 1053.3 385.1 1043.7 392.4 1038.8 385.9 1050.5 377.1 1044.7 369.2 1023 385.7 1051.7 423.7 1073.9 406.6 1067.7 398.5 1055.4 407.9"/>
      <path class="cls-3" d="M1097.3,389.3l5.2-3.9-15.9-21.2-12.6,9.4,5.4,7.1,2.5-1.9,2.8,3.8c1.7,2.3,1.3,4-.2,5.2s-3.3,1-5.1-1.2l-13.2-17.2c-1.7-2.3-1.3-4,.2-5.2s3.3-1,5.1,1.2l1.6,2.2,10-7.6c-1.5-2.2-3.4-4.2-5.6-5.9-5.3-3.5-11.7-1.8-17,2.2-9.6,7.3-9.1,15.2,1.7,29.6,11.3,14.9,16.7,18.1,26.7,10.6,2.8-1.9,4.7-4.9,5.4-8.2l3,1Z"/>
      <polygon class="cls-3" points="1118.4 373.4 1089.7 335.4 1079.7 343 1108.3 381 1118.4 373.4"/>
      <path class="cls-3" d="M1146.4,352.1l-11.2-14.8,1.7-1.3c9.2-6.9,10.1-12,3.6-20.8s-13-8.3-21.1-2.2l-11.2,8.5,28.7,38,9.5-7.4h0ZM1130.1,330.3l-7-9.2c3.9-2.8,5.3-2.7,8,.9,3.2,4.3,2.2,5.9-1,8.3h0Z"/>
      <polygon class="cls-3" points="1185.7 322.4 1179.5 314.3 1167.3 323.6 1161.7 316.2 1171.3 308.9 1165.1 300.8 1155.5 308.1 1150.6 301.6 1162.4 292.8 1156.5 285 1134.8 301.4 1163.5 339.4 1185.7 322.4"/>
      <path class="cls-3" d="M1200.8,312.4c2.8-1.9,4.7-4.9,5.4-8.2l2.9.9,5.2-3.9-15.9-21.2-12.6,9.4,5.4,7.1,2.5-1.9,2.8,3.8c1.7,2.3,1.3,4-.2,5.2s-3.3,1-5.1-1.2l-13.2-17.2c-1.7-2.3-1.3-4,.2-5.2s3.2-1,5,1.2l1.7,2.2,10-7.6c-1.5-2.2-3.4-4.2-5.6-5.9-5.3-3.4-11.7-1.8-17,2.2-9.6,7.3-9.1,15.2,1.7,29.6,11.4,14.9,16.9,18.2,26.8,10.7h0Z"/>
      <polygon class="cls-3" points="1191.5 258.6 1220.2 296.7 1230.2 289 1201.5 251 1191.5 258.6"/>
      <path class="cls-3" d="M1231.2,228.7l-11.2,8.5,28.7,38,9.5-7.3-11.1-14.8,1.7-1.3c9.2-6.9,10.1-12,3.6-20.8s-13.1-8.4-21.2-2.3h0ZM1241.9,246l-7-9.2c3.8-2.8,5.3-2.7,8,.9,3.2,4.2,2.2,5.8-1,8.3h0Z"/>
      <polygon class="cls-3" points="1268.4 200.7 1246.6 217.2 1275.3 255.2 1297.6 238.2 1291.4 230 1279.2 239.4 1273.6 232 1283.3 224.7 1277.2 216.5 1267.4 223.8 1262.6 217.4 1274.3 208.5 1268.4 200.7"/>
      <path class="cls-3" d="M1290.2,195.7c1.6-1.1,3.3-1,5.1,1.2l1.6,2.2,10-7.6c-1.5-2.2-3.4-4.2-5.6-5.9-5.3-3.4-11.7-1.8-17,2.2-9.7,7.3-9.2,15.2,1.6,29.6,11.3,14.9,16.7,18.1,26.7,10.6,2.8-1.9,4.7-4.9,5.4-8.2l2.9.9,5.2-3.9-15.9-21.2-12.6,9.4,5.4,7.1,2.5-1.9,2.8,3.7c1.7,2.3,1.3,3.9-.2,5.2s-3.2,1.1-5-1.2l-13.1-17.2c-1.7-2.2-1.3-3.9.2-5h0Z"/>
      <polygon class="cls-3" points="1303.4 174.4 1332.1 212.4 1342.1 204.8 1313.4 166.8 1303.4 174.4"/>
      <path class="cls-3" d="M1343.2,144.4l-11.3,8.5,28.7,38,9.5-7.3-11.2-14.8,1.7-1.3c9.2-6.9,10.1-12,3.5-20.8-6.6-8.8-12.8-8.4-20.9-2.3h0ZM1353.7,161.7l-7-9.2c3.9-2.8,5.3-2.7,8,.9,3.3,4.2,2.2,5.9-1,8.3Z"/>
      <polygon class="cls-3" points="1395.3 140.4 1391.8 135.9 1391.8 143 1395.3 140.4"/>
      <polygon class="cls-3" points="1379.3 139.6 1374.5 133.1 1386 124.2 1380.2 116.4 1358.5 132.8 1387.2 170.8 1391.8 167.3 1391.8 154.7 1391.2 155.1 1385.6 147.7 1391.8 143 1391.8 135.9 1389.1 132.3 1379.3 139.6"/>
      <path class="cls-3" d="M1391.8,123.6v-15.9c-3.3,4.4-3.3,9.3,0,15.9Z"/>
      <path class="cls-3" d="M1060.5,447.6c-5.3-3.5-11.7-1.8-17,2.2-1.6,1.2-3.1,2.6-4.3,4.1h26.2l.7-.5c-2.4-2.9-4-4.7-5.6-5.8h0Z"/>
      <polygon class="cls-3" points="1062.5 436.5 1075.7 454 1091.5 454 1072.6 428.8 1062.5 436.5"/>
      <path class="cls-3" d="M1119.8,429.6c9.2-6.9,10.1-12,3.6-20.8s-13-8.3-21.1-2.2l-11.2,8.5,28.7,38,9.5-7.4-11.2-14.8,1.7-1.3ZM1112.8,423.9l-7-9.2c3.8-2.8,5.3-2.7,8,.9,3.3,4.2,2.3,5.9-1,8.3h0Z"/>
      <polygon class="cls-3" points="1150.2 417.2 1144.6 409.8 1154.3 402.5 1148.1 394.4 1138.3 401.7 1133.5 395.2 1145.2 386.4 1139.3 378.6 1117.6 395 1146.3 433 1168.7 416.1 1162.5 408 1150.2 417.2"/>
      <path class="cls-3" d="M1168.7,383l5.4,7.1,2.5-1.9,2.8,3.8c1.7,2.3,1.3,4-.2,5.2s-3.3,1-5.1-1.2l-13.1-17.3c-1.7-2.3-1.3-4,.2-5.2s3.2-1,5,1.2l1.7,2.2,10-7.6c-1.5-2.2-3.4-4.2-5.6-5.9-5.3-3.4-11.7-1.8-17,2.2-9.7,7.3-9.2,15.2,1.6,29.6,11.2,15,16.6,18.2,26.7,10.8,2.8-1.9,4.7-4.9,5.4-8.2l2.9.9,5.2-3.9-15.9-21.2-12.5,9.4Z"/>
      <polygon class="cls-3" points="1184.4 344.6 1174.3 352.2 1203 390.2 1213.1 382.6 1184.4 344.6"/>
      <path class="cls-3" d="M1241.1,361.4l-11.2-14.8,1.7-1.3c9.2-6.9,10.1-12,3.6-20.8s-13-8.4-21.1-2.3l-11.2,8.5,28.7,38,9.5-7.3h0ZM1224.6,339.5l-7-9.2c3.8-2.8,5.3-2.7,8,.9,3.3,4.3,2.3,5.9-1,8.3h0Z"/>
      <polygon class="cls-3" points="1280.6 331.8 1274.4 323.6 1262.2 332.8 1256.6 325.4 1266.2 318.1 1260 310 1250.3 317.3 1245.4 310.8 1257.1 302 1251.2 294.2 1229.4 310.6 1258.1 348.7 1280.6 331.8"/>
      <path class="cls-3" d="M1295.4,321.6c2.8-1.9,4.7-4.9,5.4-8.2l2.9.9,5.2-3.9-15.9-21.2-12.6,9.4,5.4,7.1,2.5-1.9,2.8,3.8c1.7,2.3,1.3,4-.2,5.2s-3.2,1.1-5-1.2l-13.3-17.2c-1.7-2.3-1.3-3.9.2-5.2s3.3-1.1,5.1,1.2l1.6,2.2,10-7.6c-2.3-3-3.8-4.8-5.6-5.9-5.3-3.4-11.7-1.8-17,2.2-9.6,7.3-9.1,15.2,1.7,29.6,11.4,14.9,16.9,18.2,26.8,10.7h0Z"/>
      <polygon class="cls-3" points="1296.2 260.4 1286.2 268 1314.9 306 1324.9 298.4 1296.2 260.4"/>
      <path class="cls-3" d="M1325.9,237.9l-11.2,8.5,28.7,38,9.5-7.3-11.2-14.8,1.7-1.3c9.2-6.9,10.1-12,3.6-20.8s-12.9-8.3-21.1-2.3h0ZM1336.6,255.2l-6.9-9.2c3.8-2.8,5.2-2.7,7.9.9,3.2,4.3,2.2,5.9-1,8.3h0Z"/>
      <polygon class="cls-3" points="1392.3 247.6 1391.8 246.9 1391.8 248 1392.3 247.6"/>
      <polygon class="cls-3" points="1373.9 248.6 1368.3 241.2 1377.9 233.9 1371.7 225.8 1362.1 233.1 1357.3 226.6 1368.9 217.8 1363 210 1341.3 226.4 1370 264.4 1391.8 248 1391.8 246.9 1386.1 239.4 1373.9 248.6"/>
      <path class="cls-3" d="M1379.1,197.1c-9.6,7.3-9.1,15.2,1.7,29.6,4.4,5.8,7.8,9.8,11,12.1v-19.5l-7.1-9.3c-1.7-2.3-1.3-4,.2-5.2s3.2-1.1,5,1.2l1.7,2.2.2-.2v-15c-4.2-.6-8.7,1.1-12.7,4.1h0Z"/>
      <polygon class="cls-3" points="1157.1 445.8 1163.3 454 1179.1 454 1167.2 438.2 1157.1 445.8"/>
      <path class="cls-3" d="M1214.4,438.9c9.2-6.9,10.1-12,3.6-20.8s-13-8.4-21.1-2.3l-11.2,8.5,22.4,29.7h15l-10.4-13.8,1.7-1.3h0ZM1207.5,433.1l-7-9.2c3.8-2.8,5.3-2.7,8,.9,3.3,4.3,2.2,5.9-1,8.3h0Z"/>
      <polygon class="cls-3" points="1244.9 426.4 1239.3 419 1249 411.7 1242.8 403.6 1233.1 410.9 1228.2 404.4 1239.9 395.6 1234.1 387.8 1212.3 404.2 1241 442.2 1263.4 425.3 1257.2 417.1 1244.9 426.4"/>
      <path class="cls-3" d="M1263.3,392.3l5.4,7.1,2.5-1.9,2.8,3.8c1.7,2.3,1.3,4-.2,5.2s-3.2,1-5-1.2l-13.3-17.2c-1.7-2.3-1.3-4,.2-5.2s3.3-1,5.1,1.2l1.6,2.2,10-7.6c-2.3-3-3.8-4.8-5.6-5.9-5.3-3.4-11.7-1.8-17,2.2-9.6,7.3-9.1,15.2,1.7,29.6,11.3,14.9,16.7,18.1,26.7,10.6,2.8-1.9,4.7-4.9,5.4-8.2l2.9.9,5.2-3.9-15.9-21.2-12.5,9.5h0Z"/>
      <polygon class="cls-3" points="1279.1 353.9 1269 361.5 1297.7 399.6 1307.8 392 1279.1 353.9"/>
      <path class="cls-3" d="M1329.9,333.9c-6.6-8.9-13-8.4-21.1-2.3l-11.3,8.5,28.6,38,9.6-7.2-11.2-14.8,1.7-1.3c9.3-7.1,10.3-12.1,3.7-20.9h0ZM1319.3,348.8l-7-9.2c3.9-2.8,5.3-2.7,8,.9,3.3,4.2,2.3,5.8-1,8.3h0Z"/>
      <polygon class="cls-3" points="1340 320.2 1351.8 311.4 1345.9 303.5 1324.1 320 1352.8 358 1375.1 341.2 1368.9 332.9 1356.6 342.3 1351.1 334.9 1360.7 327.6 1354.5 319.4 1344.9 326.7 1340 320.2"/>
      <path class="cls-3" d="M1375.1,308l5.4,7.1,2.5-1.9,2.8,3.8c1.7,2.3,1.3,3.9-.2,5.2-1.5,1.3-3.2,1-5-1.2l-13.3-17.3c-1.7-2.3-1.3-4,.2-5.2s3.3-1.1,5.1,1.2l1.6,2.2,10-7.6c-2.3-3-4-4.8-5.6-5.9-5.3-3.4-11.7-1.8-17,2.2-9.6,7.3-9.1,15.2,1.7,29.6,11.3,14.9,16.7,18.1,26.7,10.6.6-.4,1.2-.9,1.7-1.5v-25.3l-4.2-5.5-12.4,9.5h0Z"/>
      <polygon class="cls-3" points="1380.9 277.2 1391.8 291.7 1391.8 270.8 1390.9 269.6 1380.9 277.2"/>
      <polygon class="cls-3" points="1253.1 454 1266.8 454 1261.8 447.4 1253.1 454"/>
      <path class="cls-3" d="M1309.2,448.1c9.1-6.9,10-12,3.4-20.8s-13-8.4-21.1-2.3l-11.2,8.5,15.4,20.5h15.2l-3.4-4.6,1.7-1.3h0ZM1302.1,442.3l-7-9.2c3.8-2.8,5.3-2.7,8,.9,3.2,4.3,2.2,5.9-1,8.3h0Z"/>
      <polygon class="cls-3" points="1339.4 435.8 1333.8 428.5 1343.6 421.1 1337.4 412.9 1327.7 420.2 1322.9 413.7 1334.6 404.9 1328.8 397.1 1307 413.6 1335.7 451.6 1357.9 434.8 1351.7 426.6 1339.4 435.8"/>
      <path class="cls-3" d="M1361.7,382c-5.3-3.5-11.7-1.8-17,2.2-9.7,7.3-9.2,15.2,1.6,29.6,11.2,14.9,16.7,18.1,26.7,10.6,2.8-1.9,4.7-4.9,5.4-8.2l2.9.9,5.2-3.9-15.9-21.2-12.6,9.4,5.4,7.1,2.5-1.9,2.8,3.8c1.7,2.3,1.3,4-.2,5.2s-3.3,1.1-5.1-1.2l-13.2-17.2c-1.7-2.3-1.3-4,.2-5.2s3.3-1.1,5.1,1.2l1.7,2.2,10-7.6c-2.3-2.9-3.9-4.7-5.5-5.8h0Z"/>
      <polygon class="cls-3" points="1363.6 370.8 1391.8 408.1 1391.8 387.2 1373.7 363.2 1363.6 370.8"/>
      <polygon class="cls-3" points="1360.2 454 1364.6 454 1363 451.9 1360.2 454"/>
      <polygon class="cls-3" points="1391.8 451.7 1391.8 430.2 1381.5 438 1391.8 451.7"/>
    </g>
    <path id="path8707" class="cls-5" d="M1387.5,512.5h-415.2V97.2h415.3v415.3h0ZM963.6,88.6v432.5h432.5V88.6h-432.5"/>
    <g id="g121">
      <path id="path119" class="cls-6" d="M1358.6,291.7c4.2-1.3,8-3.6,11.2-6.6,7-6.9,9.7-17,7.1-26.5-1-3.4-33.8-101.8-36.9-110.8-1.4-5.1-3.7-10.1-7.6-13.9-6.8-6.9-16.8-9.7-26.2-7.2-1.5.4-185.3,63.6-190.1,65.8-1.1.6-2.2,1.2-3.2,1.9-3.6,2.7-6.6,6.3-8.5,10.3-1.4,2.9-2.3,6-2.5,9.1v7.1c-6.9.9-13.6,2.7-19.9,5.6-6.6,3-12.7,7.1-18,12-2.8,2.6-5.4,5.5-7.8,8.5-5,6.7-8.6,14.2-12.9,21.3-.6,1.1-1.3,2.2-1.9,3.4-11.8,20.6-23.8,41.2-35.4,61.8-2.3,4-4.8,8.1-7,12.2-1.9,3.5-4.1,6.9-6.1,10.3-2,3.8-4.2,7.5-6.4,11.2-.7,1.1-1.3,2.3-1.9,3.4-1,3-.4,6.3,1.7,8.6,3.2,3.5,9.4,3.5,12.4-.3,2.7-3.8,4.8-8,7.1-12,1.3-2.3,2.7-4.7,4.1-7,2.2-3.9,4.4-7.6,6.6-11.5,4.4-7.6,8.7-15.3,13.2-22.8,1.8-3.4,3.8-6.8,5.9-10.2,1.1-1.9,2.1-3.8,3.2-5.7,1.9-3.4,3.8-6.8,5.8-10.1.8-1.3,1.6-2.7,2.3-4.1,2.5-4.5,5.1-9,7.8-13.5,4-7.2,8.1-14.4,12.4-21.6,8.6-13.7,24-22.1,40-23.5.5,1.2,19.7,58.7,23.8,71.2-6.8,4.3-14.2,7.6-21.9,9.7-5.9,1.9-7.3,10.6-2.2,14.2,3.8,3.4,9.2,1.1,13.5-.3,9.1-3.1,17.7-7.8,25.3-13.7,1.2-.9,2.3-1.8,3.6-2.7,6.4-5,12.9-9.8,19.3-14.8,1.7-1.3,3.3-2.6,5.1-3.9,3.6-2.6,7.1-5.4,10.6-8.1,3.4-3,8-4.3,12.5-3.6,8.2,1.1,14.1,10.2,11.6,18.2-1.2,4.8-5.4,7.9-9.1,10.6-8.4,6.6-16.8,13.3-25.2,20-10.3,7.8-18.5,18.2-23.6,30.2-2.2,5-3.6,10.3-6.1,15.2-4.3,8.3-10.4,15.6-17.8,21.2l-3,2.1c-8.6,6.1-19.2,7.8-29,11.1-6.4,2.5-12.5,5.8-18,9.8-2,1.5-4.2,3.3-4.7,6.1-.2,2.5,0,5.4,1.9,7.2,2.5,3.1,7.4,3.5,10.8,1.4,6.2-5,13.4-8.6,21-10.9,8.9-2,17.4-5.4,25.2-10.1,1.8-1.1,3.7-2.3,5.5-3.6,6.7-4.9,12.4-11.1,16.8-18.1l4.3-6.1c.8-1.3,1.6-2.6,2.3-4,4.3,2.4,9.1,3.8,14,4.3,2.6-.2,5.2-.6,7.7-1.2,3.7-1.4,7.1-3.6,10-6.4,1.3-1.6,2.6-3.2,3.8-4.9,1.2.5,2.4,1,3.7,1.4,12.6,3.7,26-2.8,30.8-15.1,6.2,1.6,12.8.1,18.4-2.4,7.8-4.2,8.8-14.2,7.7-22.1-.5-3.3-1.2-6.5-2-9.7M1181.1,367.4c-1.4,3.6-5.3,5.7-8.9,6.2-2.6-.6-5.4-1.3-7.2-3.4,1.8-3.7,4.2-7.2,6.9-10.3,1.6-2.7,3.7-5.7,7.1-6.1,1.1,4.3,4.2,8.9,2.1,13.6h0ZM1213,358.8c-2.5,4.5-9.5,5.6-13.2,1.8-3.3-3.2-3.7-8.1-5.1-12.3,5.6-1.6,11.2-3.5,16.6-5.5.9,5.3,4.8,10.9,1.7,16h0ZM1241.4,346.7c-1.5,2-4.3,2.3-6.6,2.8-2-.5-4.3-1.1-5.6-2.9-1.3-2.6-2-5.6-3.2-8.3,5.1-1.9,10-3.9,15.4-4.9l-.5,1.2c1.5,3.7,2.9,8.5.5,12.1h0ZM1338.2,193.7c.8,2.1,20.8,59.9,23.2,66.2,1.7,4,1.9,8.8-.7,12.4-1.9,2.6-4.6,4.5-7.7,5.3,0,0-137.3,47.6-145.9,50.8,3.6-3.1,7.6-5.8,10.6-9.6l.4-.2c5-7,7.5-15.9,5.8-24.4-1.9-11.1-10.3-20.3-20.9-24-3.8-1.2-7.7-1-11.6-1.6-3.4.7-7,1.2-10.2,2.7-5,2.1-9,5.9-13.4,9-2.3,1.9-4.8,3.8-7.2,5.5h0c-4.2,3.3-8.8,5.7-13.2,8.6-1.8,1.2-4.9,3.1-4.9,3.1-2.2-5.8-9.7-28.5-11.6-32.7,6.3-2.1,206.5-70.9,207.2-71.1h.1ZM1313.2,140.8c4,.3,8.1,2.2,10.2,5.8,1.6,3.1,2.3,6.7,3.8,9.9-16.7,6-202.1,69.6-206.8,71.2-1.8-4.9-4.6-10.1-2.6-15.5.3-5,12.5-8.8,12.5-8.8,18.2-6.3,173.5-60.5,182.9-62.6h0Z"/>
    </g>
    <g id="g155">
      <polygon id="polygon123" class="cls-6" points="1351.7 497.6 1351.7 489.8 1362 489.8 1362 479.6 1351.7 479.6 1351.6 472.8 1362.6 472.8 1362.6 462.2 1342.1 462.2 1342.1 508.2 1363.2 508.2 1363.2 497.6 1351.7 497.6"/>
      <path id="path125" class="cls-6" d="M1377.8,478.6c-3-1.6-4.6-6.1-1.9-8.8,3.2-1,3,3.5,3.2,5.6,2.9,0,6,.2,8.9,0,0-3.1,0-6.5-1.5-9.3-4-7.1-16.4-6.4-19.7,1-1.8,4.3-1.6,9.1-1.1,13.7,1.5,7,10.7,7.3,13,12.5,1,2.1,1.1,6.6-2,7.1-2.9-.5-2-4.2-2.4-6.3h-9.3c0,4.8.2,11,5.2,13.6,5.6,2.4,14.2,1.9,17.1-4.2,2-4.8,2-10.2.9-15.2s-6.2-7.3-10.4-9.7h0Z"/>
      <path id="path127" class="cls-6" d="M1294.8,462.2l-8,45.9h9.8l1-7.1h6.2l1.1,7.1h9.9l-8.1-45.9h-11.9ZM1298.5,491l2.6-18.5,1.8,18.5h-4.4Z"/>
      <path id="path129" class="cls-6" d="M1249.8,489c0,3.8.8,7.6-.9,11.3-1.1,2.2-2.7.6-3-.1-2.2-7.8-.8-17-.8-25.5.2-1.8.6-6.3,3.3-4.7,1.5,2.8.9,6.1,1,9.1,3.2,0,6.3,0,9.4-.1-.2-5.1.2-11-3.3-15-3.6-3.4-9.1-3.2-13.6-1.9-4.1,1.3-6,5.7-6.4,9.6-.8,8.1-.9,16.2-.3,24.3.3,4.3,1.2,9.2,5.2,11.6,4.8,2.5,11.8,2.4,15.3-2.1,3.3-4.7,3.2-10.8,3.1-16.3-2.8,0-6,0-9-.2h0Z"/>
      <polygon id="polygon131" class="cls-6" points="1275.7 462.2 1275.7 478.8 1271.2 478.8 1271.2 462.2 1261.6 462.2 1261.6 508.2 1271.2 508.2 1271.2 489.7 1275.7 489.6 1275.7 508.2 1285.4 508.2 1285.4 462.2 1275.7 462.2"/>
      <path id="path133" class="cls-6" d="M1333.4,481.6c-2.9-1.9-7.2-3-8.2-6.9-.7-1.9.2-5.2,2.6-5.1,1.8,1.4,1.5,3.9,1.8,5.9h9c-.2-4.8-.6-10.8-5.5-13.1-4.8-1.9-11.4-1.7-14.7,2.7-3,4.2-3,9.8-2.5,14.8.6,4.6,4.5,7.6,8.1,9.7,2.3,1.5,5.6,2.9,5.4,6.3,0,1.5-.2,4.9-2.4,4.3-2.8-.2-2.1-4.1-2.1-5.9h-9.4c0,4,0,8,2.6,11.4,2.5,2.9,6.7,3.5,10.3,3.2,4.2-.1,8.5-2.5,9.7-6.8,1.6-5.2,1.5-10.8-.3-16-1.1-1.8-2.6-3.3-4.4-4.5h0Z"/>
      <path id="path135" class="cls-6" d="M1231.9,492.1c0-2.8-1.6-6.3-4.9-6.4,5.5-2.9,5.9-10,5.1-15.5-.5-3.5-2.7-7.3-6.6-7.8-5.7-.7-11.4-.2-17-.3v46.1h9.8v-18.3c.8,0,2.5-.4,3.1.1,2.9,2.9,1.1,12.3,2.8,18.2h9.4c-2.8-4.8-.8-10.8-1.7-16.1h0ZM1218.2,481.7v-10.3c1.5.2,3.4-.1,4.2,1.7.9,3.4.8,8.9-4.1,8.6h-.1Z"/>
      <path id="path137" class="cls-6" d="M1195.6,462.1v37.8c0,2.5-4.6,2.1-4.6.3v-38.1h-9.4s-.6,25.8.6,38.4c1,8.8,13.2,11,19.1,5.7,3-3.2,3.8-8,3.8-12.3v-31.9h-9.5Z"/>
      <path id="path139" class="cls-6" d="M1171.8,462.6c-5.4-.9-10.8-.3-16.2-.5v46.1h9.5v-17.3c3.4,0,7.5,0,10.1-2.6,4.3-3.9,4.3-10.2,3.8-15.5-.2-4.4-2.6-9.3-7.2-10.2h0ZM1168.8,480.9c-1.2.3-2.4.7-3.7,1v-10.5c1.3.4,2.8.3,3.7,1.6,1,2.4.4,5.2,0,7.9h0Z"/>
      <polygon id="polygon141" class="cls-6" points="1140.3 497.6 1128.7 497.6 1128.7 489.8 1139.1 489.8 1139.2 479.6 1128.7 479.7 1128.7 472.8 1139.8 472.8 1139.8 462.2 1119.1 462.2 1119.1 508.2 1140.4 508.2 1140.3 497.6"/>
      <polygon id="polygon143" class="cls-6" points="1115.5 462.2 1101.9 462.2 1098.6 489.9 1095.8 462.2 1082 462.2 1082 508.2 1091 508.2 1091.1 474.8 1095.3 508.2 1102.3 508.2 1106.5 475.7 1106.5 508.2 1115.6 508.2 1115.5 462.2"/>
      <path id="path145" class="cls-6" d="M1071.8,462.2h-11.3l-8.1,45.9h9.8l1.1-7.1h6.2l1.1,7.1h10l-7.5-45.9h-1.3ZM1064.2,491l2.4-18.4,1.9,18.4h-4.3Z"/>
      <path id="path147" class="cls-6" d="M1039.8,482.9v8.4c.9.1,1.8.1,2.6,0,0,0,.9,8-2,9-2.2.7-2.8-2-2.9-3.6-.2-7,0-13.9,0-20.9s-.4-5.1,1.7-6.1c1.2-.4,2.4.2,2.9,1.3v5.8h9.1c0-4.5-.3-9.4-3.5-12.9-3.3-3.1-8.5-3.1-12.7-2-4.8,1.7-6.6,7.1-7.2,11.7-.7,8.2-.6,16.4,0,24.6.5,4.5,2.6,9.9,7.7,10.6,3.8,1.1,7.3-1.2,9.1-4.5v3.8h6.6c.2-8.4,0-16.8,0-25.2-3.7.1-7.5.1-11.4,0h0Z"/>
      <polygon id="polygon149" class="cls-6" points="1009.6 484.1 1009.6 494.8 1025.1 494.8 1025.1 484.1 1009.6 484.1"/>
      <polygon id="polygon151" class="cls-6" points="997.4 462.2 997.4 491.1 992.7 462.2 982.3 462.2 982.2 508.2 991 508.2 990.8 480.4 996.4 508.2 1006.5 508.2 1006.5 462.2 997.4 462.2"/>
      <polygon id="polygon153" class="cls-6" points="969.1 462.2 969.2 508.2 979 508.2 979 462.2 969.1 462.2"/>
    </g>
    <g id="g161">
      <polygon id="polygon157" class="cls-6" points="1354.6 125.9 1358.6 125.9 1358.6 106.4 1365.6 125.9 1368.3 125.9 1376 106.2 1376 125.9 1380.1 125.9 1380.1 100.8 1373.8 100.8 1367.3 119.1 1361.1 100.8 1354.6 100.8 1354.6 125.9"/>
      <polygon id="polygon159" class="cls-6" points="1340.6 125.9 1345 125.9 1345 104.3 1352 104.3 1352 100.8 1333.9 100.8 1334 104.3 1340.6 104.3 1340.6 125.9"/>
    </g>
  </g>
  <g id="PEGI_repeat" data-name="PEGI repeat">
    <rect class="cls-4" x="35.3" y="87.9" width="425.3" height="425.3"/>
  </g>
  <path class="cls-5" d="M185,452.8h-66.3v-230.6h-43.4v-39.1c29.8.4,49.3-11.9,60-40.8h49.7v310.5h0Z"/>
  <path class="cls-5" d="M315.1,276.7c12.8-11.9,22.1-20.4,43.4-20.4,39.5,0,60.4,33.6,60.4,96.1s-15.3,105.5-85.5,105.5-74.4-25.1-83.4-72.7c-3.8-20.8-4.2-46.4-4.2-81.2.4-42.5.9-68.1,4.7-88.9,8.9-47.6,34-72.7,83.4-72.7s80.8,27.7,80.8,74.4v15.7h-62.1v-7.2c0-21.3-8.1-26.8-18.7-26.8-12.8,1.7-18.3,13.6-18.7,30.7v47.5h-.1ZM334.3,317.5c-13.2,0-19.1,13.2-19.1,41.3s6,41.3,19.1,41.3,20-12.8,20-41.3-6-41.3-20-41.3Z"/>
  <g id="border-2">
    <path class="cls-5" d="M35.3,87.9v518.9h425.3V87.9H35.2h0ZM452.1,504.7H43.8V96.4h408.3v408.3h0Z"/>
  </g>
  <path id="TM-2" class="cls-5" d="M416.2,104.9v3.2h-6.7v21.3h-4v-21.3h-6.7v-3.2h17.4,0ZM443.6,129.4h-4v-19.3h0l-6.8,19.3h-3.2l-6.4-19.3h0v19.3h-4v-24.5h6.3l6.1,18.2h0l5.9-18.2h6.2v24.5Z"/>
  <g id="www.pegi.info">
    <polygon class="cls-2" points="62.3 573.9 69.5 573.9 76.1 541.6 76.3 541.6 83.2 573.9 90 573.9 99.4 534.3 92.9 534.3 86.8 566.7 86.6 566.7 80.1 534.3 72.8 534.3 66.1 566.7 65.9 566.7 59.6 534.3 53.1 534.3 62.3 573.9"/>
    <polygon class="cls-2" points="110.1 573.9 117.3 573.9 123.9 541.6 124.1 541.6 131 573.9 137.7 573.9 147.1 534.3 140.6 534.3 134.5 566.7 134.4 566.7 127.8 534.3 120.5 534.3 113.8 566.7 113.7 566.7 107.3 534.3 100.9 534.3 110.1 573.9"/>
    <polygon class="cls-2" points="157.8 573.9 165 573.9 171.7 541.6 171.8 541.6 178.7 573.9 185.5 573.9 194.9 534.3 188.4 534.3 182.3 566.7 182.1 566.7 175.6 534.3 168.3 534.3 161.6 566.7 161.4 566.7 155.1 534.3 148.6 534.3 157.8 573.9"/>
    <polygon class="cls-2" points="198.3 573.9 205.1 573.9 205.1 566.1 198.3 566.1 198.3 573.9"/>
    <path class="cls-1" d="M220.4,554.2c0-9,1.1-15.5,7.9-15.5s7.2,6,7.2,14.7-1.5,16.2-7.2,16.2-7.9-7.8-7.9-15.4ZM214.6,586.9h6.2v-17.5h.2c1.4,3.3,4.6,5.5,8.2,5.5,10.2,0,12.9-12.5,12.9-21.5s-3.5-20-12.9-20-7.7,3-8.5,5.9h0v-4.9h-5.9v52.5h0Z"/>
    <path class="cls-1" d="M254.1,550v-1.5c0-2.3.7-10.3,7.2-10.3s6.9,5.2,6.9,9.6v2.1h-14.1ZM274.7,554.9v-2.5c0-8.5-1.1-19-13.2-19s-14.1,11.4-14.1,21.3,4.1,20.2,13.7,20.2,13.2-9.8,13.2-14h-6.2c0,3-.8,9.1-6.7,9.1s-7.6-9.1-7.6-15.2h20.9,0Z"/>
    <path class="cls-1" d="M293.7,538.7c6.6,0,8,7.8,8,15.5s-1.3,14.4-8,14.4-7.2-8-7.2-14.4c0-9.5,1.5-15.5,7.2-15.5h0ZM307.4,534.3h-5.9v5h0c-.8-3.1-4.3-6-8.5-6-10,0-12.9,10.1-12.9,20.8s.7,19.7,12.2,19.7,7.6-2,8.9-5.3h.2v5.2c0,2.7.3,8.8-7.7,8.8s-6-1.4-6.3-5h-6.2c1,9.9,10.5,9.9,13,9.9,8,0,13.4-4.3,13.4-16.1v-37h0Z"/>
    <path class="cls-1" d="M316,573.9h6.2v-39.5h-6.2v39.5ZM316,528.3h6.2v-7.1h-6.2v7.1Z"/>
    <polygon class="cls-2" points="332 573.9 338.8 573.9 338.8 566.1 332 566.1 332 573.9"/>
    <path class="cls-1" d="M348.6,573.9h6.2v-39.5h-6.2v39.5ZM348.6,528.3h6.2v-7.1h-6.2v7.1Z"/>
    <path class="cls-2" d="M363.3,573.9h6.2v-27.2c-.2-4.2,3.1-7.8,7.3-7.9h.5c5.6,0,5.8,4.9,5.8,8v27.2h6.2v-28c0-4.6,0-12.5-10.4-12.5s-7.9,2.1-9.6,5.7h-.2v-4.6h-5.8v39.3h0Z"/>
    <path class="cls-2" d="M399.2,573.9h6.2v-34.6h6.8v-4.9h-6.8v-4.6c0-2.7,1.3-3.8,4-3.8h2.9v-5.3h-4.5c-6,0-8.5,3.1-8.5,9v4.6h-5.7v4.9h5.7v34.7s0,0,0,0Z"/>
    <path class="cls-1" d="M414.6,554.2c0,11.1,2.8,20.8,14.2,20.8s14.2-9.6,14.2-20.8-2.8-20.8-14.2-20.8-14.3,9.6-14.2,20.8h0ZM428.6,570.1c-6.3,0-7.6-7.4-7.6-15.9s1.3-15.9,7.6-15.9,7.9,7.4,7.9,15.9-1.3,15.9-7.9,15.9Z"/>
  </g>
</svg>