<?xml version="1.0" encoding="UTF-8"?>
<svg id="Layer_1" data-name="Layer 1" xmlns="http://www.w3.org/2000/svg" viewBox="0 0 131.23 29.92">
  <defs>
    <style>
      .cls-1, .cls-2 {
        fill: #fff;
      }

      .cls-2 {
        fill-rule: evenodd;
      }
    </style>
  </defs>
  <path class="cls-2" d="m2.87,25.46c-3.01-.87-3.52-2.66-2.15-3.69,1.27-.96,3.44-1.67,3.44-1.67l8.93-3.21v3.66l-6.43,2.33c-1.14.42-1.31,1-.39,1.3.92.3,2.59.22,3.73-.19l3.08-1.13v3.28c-.19.04-.41.07-.61.1-3.22.53-6.51.26-9.6-.78Zm18.85.38l10.02-3.6c1.14-.42,1.31-.99.39-1.3-.92-.3-2.59-.22-3.73.19l-6.68,2.37v-3.78l.39-.13c1.51-.49,3.06-.82,4.64-.99,2.71-.3,6.04.04,8.65,1.04,2.94.94,3.27,2.32,2.52,3.27-.75.95-2.58,1.63-2.58,1.63l-13.62,4.94v-3.64Zm1.17-23.46c5.28,1.84,7.07,4.12,7.07,9.27s-3.06,6.92-6.94,5.02V7.32c0-1.1-.2-2.11-1.22-2.39-.78-.25-1.26.48-1.26,1.58v23.41l-6.23-2V0c2.65.5,6.51,1.67,8.59,2.38h0Z"/>
  <path class="cls-1" d="m130.52,5.97h-25.41v6.94s-.08,2.68,3.21,2.68h15.53c.61,0,1.21.12,1.77.36.87.39,1.84,1.18,1.84,2.78,0,1.44-.69,2.25-1.37,2.71-.57.37-1.23.56-1.9.56h-19.09v1.95h21.28s4.84-.2,4.84-5.2c0-2.55-1.48-3.81-2.8-4.42-.86-.4-1.79-.6-2.74-.6h-15.4c-.26,0-.51-.06-.74-.18-.33-.18-.69-.54-.69-1.24v-4.42h21.66v-1.92Zm-57.4,16.02v1.95h10.79c1.29.01,2.54-.44,3.52-1.28.51-.43.91-.97,1.18-1.59.27-.61.4-1.27.39-1.94v-8.28c0-.45.09-.9.28-1.31.19-.41.47-.77.82-1.05.5-.39,1.11-.6,1.74-.59h9.4v-1.92h-11.2s-4.83.08-4.83,5.23v7.73c0,.63-.16,1.26-.49,1.8-.24.4-.58.73-.98.95-.41.22-.86.33-1.32.32h-9.3ZM48.21,5.97v1.92h19.23c.53,0,1.06.11,1.55.34.76.36,1.62,1.1,1.62,2.61s-.86,2.19-1.62,2.55c-.49.23-1.03.34-1.57.34h-14.26c-.84,0-1.68.18-2.44.56-1.19.6-2.51,2.01-2.51,4.34v5.29h3.7v-5.26c0-.34.06-.68.18-1,.31-.79,1.08-2.06,2.88-2.06h14.38c.48,0,.97-.06,1.43-.19,1.32-.38,3.52-1.47,3.52-4.56,0-4.8-4.75-4.86-4.75-4.86h-21.35Z"/>
</svg>