<svg width="97" height="30" viewBox="0 0 97 30" fill="none" xmlns="http://www.w3.org/2000/svg">
<path fill-rule="evenodd" clip-rule="evenodd" d="M16.7385 30C9.6889 30 3.73135 25.4936 1.80544 19.3133H1.80571C1.80802 19.3054 1.81032 19.2975 1.81261 19.2896C1.81626 19.3 1.81992 19.3104 1.8236 19.3208L7.77802 21.6708C8.07683 22.9492 8.9933 24.0709 10.3462 24.6092C12.559 25.4926 15.1098 24.4859 16.0297 22.3675C16.2663 21.8253 16.3806 21.2415 16.3651 20.6541L21.8534 16.9024L21.9876 16.9049C25.2719 16.9049 27.942 14.3431 27.942 11.1981C27.9411 9.68684 27.3138 8.23762 26.1976 7.16816C25.0814 6.09869 23.5674 5.49626 21.9876 5.49295C20.4078 5.49626 18.8938 6.09869 17.7776 7.16816C16.6614 8.23762 16.0341 9.68684 16.0332 11.1981H16.0341L16.0358 11.2731L12.2001 16.6032C11.5789 16.5765 10.9543 16.6807 10.3636 16.9132C10.1023 17.0149 9.85837 17.1399 9.62925 17.284L1.20508 13.9673C1.20508 13.9673 1.20368 13.9893 1.20161 14.031C1.19595 14.0218 1.19027 14.0126 1.18457 14.0034C1.71847 6.18412 8.47847 0 16.7398 0C25.349 0 32.3285 6.71588 32.3285 15C32.3285 23.2841 25.349 30 16.7385 30ZM10.7278 23.7309C12.4361 24.4117 14.4015 23.6359 15.1141 22L15.115 21.9983C15.46 21.2083 15.46 20.3316 15.1202 19.5399C14.9541 19.1492 14.7084 18.7939 14.3975 18.4948C14.0866 18.1956 13.7166 17.9586 13.3091 17.7974C12.4867 17.4699 11.6077 17.4807 10.8349 17.7616L12.8386 18.5557C13.4434 18.7977 13.9231 19.2593 14.1724 19.8393C14.4216 20.4193 14.4201 21.0702 14.168 21.6491C13.6445 22.855 12.1992 23.4258 10.9395 22.9242L9.00114 22.1558C9.34438 22.8417 9.93938 23.4167 10.7278 23.7309ZM18.0221 11.1964C18.0221 13.2923 19.8106 14.9982 21.9885 14.9982C24.1768 14.9982 25.9566 13.2906 25.9566 11.1964C25.9566 9.1022 24.1751 7.39633 21.9885 7.39633C19.8019 7.39633 18.0221 9.10053 18.0221 11.1964ZM21.9954 8.33302C20.3507 8.33302 19.0161 9.61221 19.0161 11.1897C19.0161 12.7664 20.3507 14.0448 21.9954 14.0448C23.6402 14.0448 24.9748 12.7673 24.9748 11.1897C24.9748 9.61221 23.6402 8.33302 21.9954 8.33302Z" fill="white"/>
<path d="M95.9323 20.6016H93.8075V14.0834L91.3298 18.3261H89.9127L87.7879 14.0834V20.6016H85.3102V9.39901H87.7879L90.6204 15.4421L93.8075 9.39901H95.9323V20.6016ZM82.1231 20.6016H79.6453L78.9368 18.6328H75.042L74.3334 20.6016H71.8557L76.1044 9.39901H77.8744L82.1231 20.6016ZM78.5821 16.7657L77.165 12.6923L75.7479 16.7657H78.5821ZM68.3147 20.6016H60.5251V9.39901H68.3147V11.3328H63.0028V13.9809H67.6062V15.9172H63.0028V18.6678H68.3147V20.6016ZM56.9815 11.3328H54.1491V20.6016H51.6714V11.3328H48.4842V9.39901H56.9824L56.9815 11.3328ZM45.6509 17.3092C45.6509 19.618 43.5262 20.6699 41.4023 20.7041C39.2775 20.7041 37.8613 20.229 37.1536 19.2104L38.5707 17.8184C39.2792 18.4294 39.9878 18.7687 41.4031 18.7687C42.8185 18.7687 43.5279 18.2936 43.5279 17.3767C43.5279 16.5281 42.8193 16.1547 42.1108 16.018L40.6937 15.848C38.569 15.5763 37.5066 14.5244 37.5066 12.6906C37.5066 11.672 37.8604 10.8568 38.569 10.2125C39.2775 9.60156 40.339 9.29565 41.4014 9.29565C43.1714 9.29565 44.2338 9.73742 45.2962 10.586L43.8791 11.9779C43.1706 11.4695 42.462 11.1969 41.4014 11.1969C40.339 11.2636 39.6313 11.6387 39.6313 12.6223C39.6313 13.4033 40.3399 13.7767 41.0484 13.8442L42.4655 14.0476C44.2356 14.251 45.6527 15.4062 45.6527 17.2983L45.6509 17.3092Z" fill="white"/>
</svg>
