<svg width="243" height="30" viewBox="0 0 243 30" fill="none" xmlns="http://www.w3.org/2000/svg">
<path d="M129.292 8.2521V13.4925H138.459V15.7993H129.292V21.3679H139.653V23.8531H126.473V5.76769H139.653V8.2521H129.292ZM122.806 15.4739C121.886 14.6469 120.356 14.0065 118.258 13.5683L116.657 13.2391C115.136 12.9208 114.079 12.5301 113.515 12.0788C112.956 11.6634 112.672 11.0398 112.672 10.2261C112.672 9.42822 112.991 8.80528 113.618 8.37423C114.248 7.93965 115.172 7.7197 116.367 7.7197C117.904 7.7197 119.033 7.99425 119.723 8.53685C120.41 9.0788 120.802 9.9366 120.889 11.0889L120.891 11.1135H123.683V11.0854C123.648 9.3138 123.015 7.90073 121.799 6.88828C120.586 5.87558 118.75 5.36185 116.343 5.36185C114.348 5.36185 112.742 5.81131 111.573 6.69732C110.398 7.58397 109.804 8.78936 109.804 10.2769C109.804 11.7644 110.293 12.9452 111.259 13.7912C112.223 14.6349 113.67 15.2499 115.56 15.6211L117.136 15.9503C118.693 16.2847 119.786 16.6716 120.381 17.0983C120.974 17.5214 121.275 18.132 121.275 18.9122C121.275 19.8774 120.909 20.6251 120.187 21.1337C119.463 21.6413 118.412 21.9007 117.064 21.9007C115.433 21.9007 114.187 21.562 113.359 20.8935C112.535 20.2267 112.104 19.2105 112.078 17.8752V17.8487H109.26V17.8771C109.277 19.9513 109.972 21.5526 111.324 22.6327C112.675 23.7131 114.588 24.2584 117.014 24.2584C119.248 24.2584 121.022 23.7711 122.289 22.8105C123.555 21.848 124.198 20.5108 124.198 18.8377C124.198 17.4339 123.73 16.3026 122.806 15.4739ZM156.608 21.6213L156.426 18.8097C156.391 17.8131 156.164 17.0029 155.75 16.402C155.348 15.8196 154.711 15.3947 153.856 15.1361C154.8 14.8282 155.545 14.302 156.073 13.5711C156.616 12.819 156.892 11.8804 156.892 10.7833C156.892 9.22798 156.318 7.9893 155.189 7.10252C154.061 6.21651 152.495 5.76691 150.534 5.76691H142.471V23.8514H145.291V16.431H150.611C151.667 16.431 152.442 16.6703 152.918 17.1443C153.394 17.6184 153.66 18.4436 153.711 19.5962L153.787 21.5209C153.805 22.5677 153.99 23.3489 154.337 23.8398L154.345 23.8531H157.248L157.224 23.8119C156.9 23.277 156.693 22.5407 156.608 21.6213ZM145.29 8.151H150.379C151.539 8.151 152.442 8.39565 153.063 8.87934C153.682 9.36238 153.996 10.0872 153.996 11.0366C153.996 12.0218 153.69 12.7889 153.087 13.3219C152.483 13.8553 151.642 14.126 150.586 14.126H145.29V8.151ZM159.439 23.8533H162.258V5.76769H159.439V23.8533ZM178.256 8.2521V5.76769H165.076V23.8531H178.256V21.3679H167.895V15.7993H177.062V13.4925H167.895V8.2521H178.256ZM193.278 15.4739C192.358 14.6469 190.827 14.0065 188.73 13.5683L187.13 13.2391C185.608 12.9208 184.55 12.5301 183.988 12.0788C183.429 11.6634 183.145 11.0398 183.145 10.2261C183.145 9.42822 183.463 8.80528 184.09 8.37423C184.72 7.93965 185.645 7.7197 186.84 7.7197C188.376 7.7197 189.505 7.99425 190.194 8.53685C190.882 9.0788 191.275 9.9366 191.361 11.0889L191.362 11.1135H194.153V11.0854C194.118 9.3138 193.485 7.90073 192.271 6.88828C191.056 5.87558 189.221 5.36185 186.814 5.36185C184.819 5.36185 183.214 5.81131 182.043 6.69732C180.87 7.58397 180.276 8.78936 180.276 10.2769C180.276 11.7644 180.766 12.9452 181.731 13.7912C182.695 14.6349 184.142 15.2499 186.032 15.6211L187.608 15.9503C189.165 16.2847 190.256 16.6716 190.854 17.0983C191.446 17.5214 191.747 18.132 191.747 18.9122C191.747 19.8774 191.381 20.6251 190.659 21.1337C189.936 21.6413 188.884 21.9007 187.536 21.9007C185.905 21.9007 184.659 21.562 183.832 20.8935C183.006 20.2267 182.575 19.2105 182.55 17.8752V17.8487H179.733V17.8771C179.749 19.9513 180.444 21.5526 181.797 22.6327C183.147 23.7131 185.061 24.2584 187.485 24.2584C189.72 24.2584 191.494 23.7711 192.761 22.8105C194.027 21.848 194.669 20.5108 194.669 18.8377C194.668 17.4339 194.201 16.3026 193.278 15.4739ZM223.288 26.1131H221.878V3.50781H223.288V26.1131ZM210.383 14.4409L216.811 5.76782H213.67L208.812 12.3227L203.953 5.76782H200.812L207.242 14.4409L200.265 23.8533H203.405L208.811 16.5595L214.217 23.8533H217.357L210.383 14.4409ZM241.357 15.4739C240.437 14.6469 238.906 14.0065 236.811 13.5683L235.209 13.2391C233.687 12.9208 232.631 12.5301 232.067 12.0788C231.508 11.6634 231.225 11.0398 231.225 10.2261C231.225 9.42822 231.542 8.80528 232.17 8.37423C232.8 7.93965 233.724 7.7197 234.919 7.7197C236.455 7.7197 237.585 7.99425 238.274 8.53685C238.962 9.0788 239.354 9.9366 239.44 11.0889L239.441 11.1135H242.233V11.0854C242.198 9.3138 241.566 7.90073 240.35 6.88828C239.136 5.87558 237.3 5.36185 234.894 5.36185C232.899 5.36185 231.293 5.81131 230.123 6.69732C228.95 7.58397 228.354 8.78936 228.354 10.2769C228.354 11.7644 228.845 12.9452 229.81 13.7912C230.775 14.6349 232.222 15.2499 234.112 15.6211L235.688 15.9503C237.245 16.2847 238.336 16.6716 238.933 17.0983C239.525 17.5214 239.826 18.132 239.826 18.9122C239.826 19.8774 239.461 20.6251 238.739 21.1337C238.014 21.6413 236.964 21.9007 235.615 21.9007C233.985 21.9007 232.738 21.562 231.912 20.8935C231.086 20.2267 230.655 19.2105 230.63 17.8752V17.8487H227.811V17.8771C227.83 19.9513 228.524 21.5526 229.876 22.6327C231.226 23.7131 233.14 24.2584 235.565 24.2584C237.8 24.2584 239.575 23.7711 240.84 22.8105C242.108 21.848 242.75 20.5108 242.75 18.8377C242.75 17.4339 242.281 16.3026 241.357 15.4739Z" fill="white"/>
<path d="M52.586 23.8913H49.4546L44.0642 16.6191L38.6738 23.8913H35.5424L42.4978 14.5063L36.0883 5.85877H39.2196L44.0642 12.3941L48.908 5.85877H52.04L45.6297 14.5063L52.586 23.8913ZM68.8403 18.7641C68.8403 20.3468 68.3038 21.6111 67.2467 22.521C66.1909 23.4308 64.6545 23.8913 62.6822 23.8913H54.0566V15.8624H49.9581L51.6631 13.5617H54.0565V5.85932H62.3218C64.1736 5.85932 65.6152 6.29559 66.6031 7.15397C67.5919 8.01428 68.0936 9.15885 68.0936 10.5571C68.0936 12.2911 67.2923 13.6063 65.709 14.4665C66.7299 14.8532 67.5127 15.4234 68.0366 16.1602C68.5705 16.9109 68.8403 17.7873 68.8403 18.7641ZM56.8668 13.5617H62.1414C63.2028 13.5617 64.0091 13.3288 64.5391 12.8677C65.0668 12.4078 65.3346 11.7076 65.3346 10.7852C65.3346 9.98953 65.0566 9.35863 64.5075 8.91113C63.9565 8.46372 63.161 8.2356 62.1421 8.2356H56.8673V13.5617H56.8668ZM66.0048 18.7132C66.0048 17.7675 65.7129 17.0472 65.1383 16.575C64.562 16.1015 63.6835 15.8624 62.5276 15.8624H56.8673V21.5158H62.5276C63.6499 21.5158 64.5196 21.271 65.113 20.7895C65.7046 20.3091 66.0048 19.6106 66.0048 18.7132ZM87.7376 14.8756C87.7376 16.2695 87.5317 17.5494 87.1251 18.6785C86.7179 19.8088 86.0978 20.8203 85.2847 21.6862C84.4613 22.5521 83.4955 23.2103 82.4143 23.6439C81.3351 24.0758 80.1089 24.296 78.7724 24.296C77.4178 24.296 76.1845 24.0771 75.104 23.6439C74.023 23.2115 73.0665 22.5521 72.2611 21.6874C71.4376 20.8289 70.8119 19.8224 70.4002 18.6921C69.9891 17.5616 69.7808 16.2788 69.7808 14.8768C69.7808 13.4836 69.9891 12.2014 70.4002 11.0672C70.8119 9.93368 71.4376 8.91472 72.2611 8.04097C73.0665 7.18315 74.023 6.53117 75.104 6.10226C76.1834 5.67353 77.4178 5.45654 78.7724 5.45654C80.1089 5.45654 81.3351 5.67353 82.4143 6.10226C83.4955 6.52997 84.4607 7.18315 85.2847 8.04097C86.0991 8.91472 86.7186 9.93358 87.1257 11.0672C87.5317 12.2007 87.7376 13.4812 87.7376 14.8756ZM72.693 14.8756C72.693 16.9965 73.2536 18.6996 74.3605 19.9341C75.4499 21.1848 76.9332 21.8188 78.7718 21.8188C80.6098 21.8188 82.0931 21.1847 83.1825 19.9341C84.2725 18.7157 84.8248 17.0145 84.8248 14.8769C84.8248 12.7388 84.2718 11.0282 83.1825 9.79307C82.0773 8.56034 80.5926 7.9345 78.7718 7.9345C76.9503 7.9345 75.4663 8.56034 74.3605 9.79307C73.2541 11.061 72.693 12.7709 72.693 14.8756ZM96.6128 14.5074L103.022 5.85932H99.8909L95.0463 12.3953L90.2032 5.85932H87.0713L93.4813 14.5074L86.5259 23.8918H89.6565L95.047 16.6202L100.437 23.8918H103.569L96.6128 14.5074Z" fill="white"/>
<path d="M16.2287 12.0546C16.2175 12.0447 16.1959 12.0305 16.1788 12.0305C16.1611 12.0305 16.1396 12.0455 16.1282 12.0546C11.5509 15.4664 3.71445 23.9075 6.10476 26.2917C8.79647 28.6005 12.3211 30 16.1788 30C20.0373 30 23.5619 28.6005 26.2529 26.2917C28.6426 23.9075 20.8061 15.4674 16.2287 12.0546Z" fill="white"/>
<path d="M16.1776 0C19.2671 0 21.8068 0.83022 24.1502 2.19518C24.1788 2.20999 24.1895 2.24165 24.1756 2.26925C24.1637 2.29677 24.1333 2.30174 24.1023 2.29493C21.1381 1.66743 16.6369 4.17594 16.2107 4.42753C16.2011 4.43342 16.191 4.43922 16.1777 4.43922C16.1657 4.43922 16.1557 4.43342 16.1461 4.42753C15.7191 4.17594 11.2174 1.66743 8.25377 2.29493C8.22339 2.30174 8.19302 2.29677 8.17976 2.26925C8.16772 2.24165 8.17853 2.21009 8.20562 2.19518C10.5496 0.830128 13.0893 0 16.1776 0Z" fill="white"/>
<path d="M5.39852 4.35502C5.41817 4.33514 5.44046 4.31692 5.46632 4.30413C5.72352 4.17438 7.30876 3.69099 11.9771 8.24183C11.9917 8.25444 12.0036 8.27036 12.0036 8.29198C12.0036 8.30845 11.9941 8.32272 11.9827 8.33542C8.90152 11.9287 2.93787 20.4998 4.10443 24.0351C4.11403 24.0642 4.11271 24.0974 4.08609 24.1125C4.05882 24.1284 4.02346 24.1125 4.00447 24.0884C2.041 21.5657 0.875 18.4182 0.875 15.0006C0.875 10.8377 2.60477 7.0726 5.39852 4.35502Z" fill="white"/>
<path d="M20.3546 8.29198C20.3546 8.27036 20.366 8.25453 20.3804 8.24183C25.0484 3.69099 26.6335 4.17438 26.8907 4.30413C26.9168 4.31692 26.9389 4.33514 26.9585 4.35502C29.7511 7.0726 31.482 10.8377 31.482 15.0006C31.482 18.4173 30.3165 21.5657 28.3532 24.0884C28.3341 24.1125 28.2987 24.1284 28.2715 24.1125C28.2455 24.0974 28.2436 24.0641 28.2538 24.0351C29.4198 20.4998 23.4555 11.9288 20.3748 8.33542C20.3642 8.32272 20.3546 8.30845 20.3546 8.29198Z" fill="white"/>
</svg>
